<svg width="249" height="92" viewBox="0 0 249 92" fill="none" xmlns="http://www.w3.org/2000/svg">
<path d="M3.77774 26.2045C3.77774 26.9204 3.67592 28.4601 3.41981 32.9004C3.20498 36.6249 3.06187 43.3485 3.00787 46.9633C2.93697 51.7095 3.36426 53.5558 3.52009 55.6649C3.65411 57.4788 3.9814 59.9308 4.13722 62.1448C4.23824 63.5801 4.70344 64.6673 4.85618 65.5406C4.98189 66.2593 5.93462 66.42 6.55021 66.5234C7.16581 66.4231 8.0915 66.3182 9.16995 66.3691C9.63742 66.42 9.9429 66.5218 10.2576 67.2439" stroke="black" stroke-width="6" stroke-linecap="round"/>
<path d="M5.32059 24.6617C5.42241 24.6617 5.52424 24.6617 6.49314 24.6617C7.46204 24.6617 9.29492 24.6617 11.1834 24.9702" stroke="black" stroke-width="6" stroke-linecap="round"/>
<path d="M11.1833 25.5874C11.6925 28.9507 13.3371 36.9858 13.7028 39.4142C14.2907 43.319 13.7568 49.5445 13.4991 52.2645C13.051 56.9953 12.3189 59.0051 12.0072 61.9859C11.9054 62.8128 11.7017 63.6274 11.5968 64.4035C11.4919 65.1795 11.4919 65.8923 11.1833 66.6267" stroke="black" stroke-width="6" stroke-linecap="round"/>
<path d="M11.4919 24.3531C11.4919 23.4336 11.8992 20.9712 12.6722 16.5525C13.0421 14.4381 13.8555 13.2509 14.8815 12.2712C16.0692 11.137 17.3485 10.5725 18.5843 9.95538C19.7053 9.39559 21.6623 9.5419 23.3146 9.23487C25.2051 8.8836 26.6055 8.10398 28.1483 7.48684C29.6902 6.87009 31.4377 6.66606 34.366 6.40532C36.4869 6.21647 38.331 5.94401 40.5913 5.78818C42.3571 5.66645 44.1938 5.32688 50.0396 5.27288C53.4511 5.24136 57.5609 5.32688 59.0065 5.17105C59.6371 5.10308 62.1771 4.9134 65.9786 4.81157C68.3733 4.74743 72.2487 4.29626 77.0299 4.34718C79.0674 4.36888 83.4496 4.60483 89.7737 4.65574C93.7732 4.68794 96.8538 4.70974 101.831 4.55392C105.289 4.44566 108.993 4.09261 110.741 3.93678C112.3 3.79776 114.134 3.47548 118.839 3.11445C121.895 2.88003 127.402 3.062 130.642 3.16383C134.706 3.29155 139.1 3.67913 144.958 3.78096C149.447 3.85899 151.057 4.49992 154.701 4.75757C160.554 5.1714 164.016 5.73419 166.332 5.89001C169.061 6.07365 172.551 6.55497 174.102 6.81571C175.742 7.09152 178.21 7.27702 185.699 7.48376C189.458 7.58751 192.707 8.40637 196.106 9.17933C198.267 9.67093 203.988 9.85046 207.427 9.54344C208.795 9.42134 210.61 9.02968 212.157 8.87385C213.918 8.69651 215.547 8.41254 217.556 8.35854C219.174 8.31504 220.589 8.81985 222.8 8.97568C225.023 9.13239 226.865 9.43698 229.176 9.59281C231.035 9.71814 232.419 10.4676 233.655 10.7237C234.875 10.9764 236.326 11.0847 237.667 11.6479C238.962 12.1919 240.134 13.3434 240.959 14.5762C242.221 16.4614 243.016 17.7621 243.532 19.1028C244.001 20.3183 244.151 22.3844 244.407 24.4981C244.847 28.1313 244.768 34.4802 245.075 38.2849C245.385 42.1204 245.182 48.3102 245.026 49.9579C244.755 52.8264 244.565 56.7464 244.409 58.7506C244.151 60.6529 243.947 62.9177 243.792 70.0441C243.741 71.5607 243.639 71.8662 243.534 72.4895" stroke="black" stroke-width="6" stroke-linecap="round"/>
<path d="M11.1833 67.5524C11.4888 68.9811 12.9237 72.8844 14.5714 74.2869C15.9976 75.5007 18.1693 76.1861 20.0222 77.4219C21.9723 78.7225 24.137 80.506 25.7816 81.2805C28.712 82.6605 31.7462 84.2088 39.9402 86.0602C46.6365 87.5732 51.3927 86.2731 54.7638 86.1189C61.9969 85.7878 67.4381 86.1682 69.3327 86.3225C72.135 86.5507 74.637 86.2731 78.4169 86.1698C86.4712 85.9495 92.0247 86.4768 92.7421 86.6311C93.6441 86.8251 95.3079 86.8872 98.7869 87.1958C104.688 87.7191 108.789 87.4025 109.966 87.5568C111.841 87.8025 114.334 87.8129 117.002 88.1215C119.654 88.4282 121.542 88.3282 126.438 88.4825C130.822 88.6207 139.072 88.5349 143.474 88.484C149.214 88.4176 151.266 88.0227 154.394 87.6617C157.087 87.3508 158.984 87.5074 163.316 87.3531C167.341 87.2098 175.082 87.3007 179.221 87.3516C183.668 87.4063 186.832 87.6092 191.406 87.6602C193.13 87.6793 193.639 87.8129 197.669 87.8654C201.699 87.9178 209.234 87.9178 213.37 87.8669C220.275 87.7819 224.6 87.4056 226.197 87.2498C228.004 87.0734 230.259 86.7885 232.159 86.4274C235.453 85.8013 236.943 85.8628 238.284 85.4508C239.563 85.0577 240.751 84.1163 241.987 83.2924C243.222 82.4685 244.046 81.4441 244.509 80.1574C245.179 78.6639 245.385 77.4327 245.233 76.4561C245.08 76.0905 244.774 75.9886 244.46 76.1923" stroke="black" stroke-width="6" stroke-linecap="round"/>
<path d="M21.4736 31V68C19.6736 76.8 28.5234 79.3333 33.1733 79.5H201.019C211.099 79.5 212.719 71.8333 212.269 68C212.119 56.6667 211.909 31.4 212.269 21C212.629 10.6 204.919 10 201.019 11C149.72 12.8333 44.333 16.5 33.1733 16.5C22.0135 16.5 20.7236 26.1667 21.4736 31Z" fill="#70FF54"/>
<path d="M140.923 21C135.813 26.1093 123.156 37.8388 119.147 41.1384C118.49 41.679 117.745 41.8447 117.85 41.8482C120.848 41.9481 125.433 40.678 132.229 41.9606C137.641 42.9819 141.836 43.4892 145.002 43.7211C147.064 43.8721 140.937 47.228 138.122 49.1045C134.612 51.4447 127.612 57.5028 122.664 60.7004C119.143 63.3991 116.339 65.2615 113.524 67.3769C112.818 67.8478 112.122 68.3116 110 70.1951" stroke="black" stroke-width="6" stroke-linecap="round"/>
</svg>
