<svg width="91" height="90" viewBox="0 0 91 90" fill="none" xmlns="http://www.w3.org/2000/svg">
<path d="M23.6969 85.2381C21.8835 85.2381 17.5694 84.9093 13.9128 84.6577C10.8348 84.446 8.26354 82.9166 6.43276 82.0872C4.60423 81.2587 4.60697 78.2737 4.18601 73.7154C3.83985 69.967 3.44125 65.9888 3.18967 60.8477C2.79324 52.7464 3.10249 40.0839 3.35407 36.6789C3.78738 30.8142 4.09883 21.4822 4.43261 17.8331C4.6583 15.3656 5.59334 13.5115 6.1762 11.4341C6.83707 9.0787 8.24361 7.03524 10.2388 5.61795C11.9764 4.38362 14.5505 4.20563 18.5333 3.95406C22.6981 3.69099 26.1827 3.37369 33.2593 3.1246C39.8391 2.893 52.5011 3.03991 59.2688 3.12211C69.3471 3.24452 74.9985 3.86688 77.4072 4.53193C79.512 5.11311 81.4747 6.51715 83.3055 7.68536C85.0758 8.81495 84.3043 11.997 84.8872 14.8142C86.1685 21.0072 85.4701 27.0717 85.8835 31.0122C86.1365 33.423 86.7952 36.3974 87.0468 40.1412C87.2983 43.8847 87.1339 48.8617 86.8824 56.6456C86.7577 60.5045 86.1376 63.8068 85.886 73.6581C85.8193 76.2719 85.4701 77.92 85.3057 79.9102C85.1887 81.3263 83.9805 82.0797 82.9867 82.6601C81.1911 83.7086 79.0038 83.5742 74.3633 83.8258C70.8211 84.0178 68.2134 84.7399 66.0489 85.1534C64.0739 85.5307 62.066 86.0651 57.5899 86.3166C56.0702 86.4021 48.3464 86.7326 37.14 86.6504C31.5082 86.0701 29.6799 85.5719 28.2751 85.3228C27.3634 85.2381 26.0482 85.2381 24.6932 85.7363" stroke="white" stroke-width="6" stroke-linecap="round"/>
<path d="M26.2582 20.8733C26.587 20.8733 32.6746 20.8733 42.0527 20.7911C51.1269 20.3751 60.1238 20.5395 62.0293 20.7886C62.9485 20.8733 63.7704 20.8733 63.621 20.8733" stroke="white" stroke-width="6" stroke-linecap="round"/>
<path d="M25.2619 21.8696C25.2619 24.1811 24.6043 29.4817 24.1011 33.8108C23.8647 35.8451 23.2692 44.377 23.4336 56.1637C23.521 62.4357 24.5943 64.7024 25.0103 67.9405C25.29 70.1182 30.0642 65.878 39.258 65.7909C46.474 66.2068 55.6453 66.3712 57.0501 66.6203C57.9618 66.705 59.277 66.705 60.632 67.7013" stroke="white" stroke-width="6" stroke-linecap="round"/>
<path d="M25.76 44.7854C26.0888 44.7854 31.6833 44.7854 40.1497 44.7032C43.6842 44.4566 45.0143 44.1229 48.3147 43.8738C50.7931 43.7891 54.903 43.7891 58.6393 44.2873" stroke="white" stroke-width="6" stroke-linecap="round"/>
</svg>
