<svg width="244" height="174" viewBox="0 0 244 174" fill="none" xmlns="http://www.w3.org/2000/svg">
<path d="M10.1829 158.598C10.1829 159.16 10.1829 162.957 10.1829 168.063C10.1829 169.66 10.1829 169.239 11.1652 169.022C14.1123 168.805 16.9786 168.524 18.8158 168.099C19.8109 167.954 20.9336 167.954 22.0904 167.954" stroke="white" stroke-width="6" stroke-linecap="round"/>
<path d="M32.722 167.529C34.691 167.529 38.6673 167.81 50.3239 168.024C52.8457 168.095 53.4071 168.235 53.9068 168.307C54.4065 168.38 54.8275 168.38 55.6865 168.805" stroke="white" stroke-width="6" stroke-linecap="round"/>
<path d="M67.594 167.954C69.4269 167.954 73.6668 167.393 78.3512 167.174C81.5395 167.025 84.307 168.66 87.2159 169.511C88.8404 169.655 90.2693 169.796 91.4005 170.078C91.9704 170.221 92.5317 170.361 93.9606 170.081" stroke="white" stroke-width="6" stroke-linecap="round"/>
<path d="M105.443 168.805C106.004 168.805 112.889 168.805 123.094 168.875C126.702 168.945 127.123 169.085 127.901 169.158C128.68 169.23 129.802 169.23 130.959 169.655" stroke="white" stroke-width="6" stroke-linecap="round"/>
<path d="M143.717 168.805C143.998 168.524 150.317 168.38 159.954 168.45C165.397 168.805 167.668 168.945 168.729 169.088C169.229 169.09 169.65 168.949 169.658 168.805" stroke="white" stroke-width="6" stroke-linecap="round"/>
<path d="M181.991 167.954C185.232 167.954 190.063 167.674 199.178 167.599C202.54 168.235 204.241 168.805 205.302 168.875C205.802 168.945 206.223 169.085 207.082 169.655" stroke="white" stroke-width="6" stroke-linecap="round"/>
<path d="M221.541 167.954C226.317 167.954 235.992 167.674 238.401 167.459C238.973 167.389 239.394 167.248 239.611 165.422C239.828 163.595 239.828 160.087 239.828 156.897" stroke="white" stroke-width="6" stroke-linecap="round"/>
<path d="M239.828 145.415C239.828 142.6 240.108 137.207 240.183 131.685C240.113 130.535 239.972 130.114 239.9 128.915C239.828 127.715 239.828 125.751 239.828 123.726" stroke="white" stroke-width="6" stroke-linecap="round"/>
<path d="M239.402 90.1301V110.543" stroke="white" stroke-width="6" stroke-linecap="round"/>
<path d="M239.402 77.7975C239.402 73.7234 238.841 65.1925 238.622 62.6388C238.833 61.6458 238.977 60.791 239.047 59.9426C239.118 59.5152 239.258 59.0942 239.402 58.6604" stroke="white" stroke-width="6" stroke-linecap="round"/>
<path d="M238.552 44.6265C238.552 44.3459 238.552 39.0088 238.622 30.9308C238.692 28.0453 238.833 27.6243 238.905 27.0566C238.977 26.4889 238.977 25.7872 238.552 25.0642" stroke="white" stroke-width="6" stroke-linecap="round"/>
<path d="M238.127 13.5819C238.127 13.3012 238.127 10.6305 237.004 6.80311C230.761 5.36145 225.972 5.07652 221.979 4.72355C220.988 4.65125 219.585 4.65125 218.139 5.07652" stroke="white" stroke-width="6" stroke-linecap="round"/>
<path d="M205.381 4.65137C204.82 4.65137 202.706 4.65137 199.731 4.72154C198.581 4.79171 198.16 4.93204 195.698 5.00434C193.235 5.07664 188.744 5.07664 184.118 5.07664" stroke="white" stroke-width="6" stroke-linecap="round"/>
<path d="M166.256 4.65129C163.156 4.65129 157.207 4.37061 153.938 3.87305C147.834 3.94109 146.133 4.22602 145.072 4.29619C144.572 4.36636 144.151 4.5067 143.717 4.65129" stroke="white" stroke-width="6" stroke-linecap="round"/>
<path d="M127.132 4.22607C126.29 4.22607 121.365 4.22607 114.35 4.29624C111.405 4.50675 110.41 4.93202 109.349 5.28712C108.849 5.36154 108.428 5.2212 107.569 4.65134" stroke="white" stroke-width="6" stroke-linecap="round"/>
<path d="M78.651 5.50171H95.6617" stroke="white" stroke-width="6" stroke-linecap="round"/>
<path d="M69.2951 5.50171C69.0144 5.50171 68.7337 5.50171 65.7122 5.50171C62.6907 5.50171 56.9368 5.50171 51.0085 5.50171" stroke="white" stroke-width="6" stroke-linecap="round"/>
<path d="M39.5263 5.50168C38.4036 5.78236 34.4571 5.92695 29.1434 5.85678C26.7768 5.64628 25.922 5.36135 25.0736 5.14871C24.6462 5.07642 24.2252 5.07642 23.7914 5.07642" stroke="white" stroke-width="6" stroke-linecap="round"/>
<path d="M9.75756 4.22603C8.48601 3.80076 6.78919 4.36211 4.44809 4.86181C2.8102 5.2114 5.50488 9.16765 5.85785 12.5719C5.78981 19.9567 5.36454 21.2325 5.15191 22.0809C5.07961 22.5083 5.07961 22.9293 5.07961 23.3631" stroke="white" stroke-width="6" stroke-linecap="round"/>
<path d="M6.35542 33.5696C6.35542 36.8016 6.07474 43.6229 5.85998 45.8237C5.78981 46.3234 5.64947 46.7444 5.57718 47.8033C5.50488 48.8622 5.50488 50.5463 5.50488 52.2814" stroke="white" stroke-width="6" stroke-linecap="round"/>
<path d="M5.93015 64.1887C5.93015 64.3291 5.93015 64.4694 5.93015 67.98C5.93015 71.4906 5.93015 78.3672 5.50488 85.4521" stroke="white" stroke-width="6" stroke-linecap="round"/>
<path d="M7.20593 96.5093C7.20593 96.79 7.20593 100.724 7.2761 106.745C7.48661 109.539 7.6312 110.679 7.70137 111.81C7.77154 112.38 7.91188 112.942 8.05647 114.371" stroke="white" stroke-width="6" stroke-linecap="round"/>
<path d="M9.33235 125.427C9.05167 125.989 8.90708 126.699 8.83691 127.547C8.76674 127.975 8.6264 128.396 8.55411 131.279C8.48181 134.162 8.48181 139.495 8.48181 144.99" stroke="white" stroke-width="6" stroke-linecap="round"/>
<path d="M97.1885 69.6207C96.6745 68.1866 96.4693 65.5176 97.8009 58.8666C98.4793 55.4781 99.6465 52.7576 102.171 50.1017C104.191 47.9756 107.306 46.5769 110.761 44.1603C113.974 41.9132 117.341 40.5568 121.103 39.0866C123.953 37.9732 127.328 38.2385 131.893 38.2842C144.678 38.4121 147.044 38.1295 148.098 38.7176C150.979 40.3262 151.928 44.8091 153.632 47.6395C155.056 50.0069 152.419 58.6436 150.298 64.5165C149.088 67.865 146.898 70.2273 144.001 74.4167C141.753 77.6663 139.136 79.4397 137.254 81.705C134.822 84.6327 132.653 87.0036 130.003 90.1627C125.931 95.0164 123.137 98.8218 116.717 105.306C110.754 111.328 108.515 114.428 106.047 116.439C103.837 118.239 101.83 121.063 99.6128 123.359C97.5998 125.443 94.9855 127.447 92.3087 128.536C91.6832 128.79 91.0244 128.438 90.8114 127.952C89.6021 125.191 91.8274 119.926 93.4244 116.583C94.0575 115.257 95.7901 114.546 97.4573 113.979C100.878 112.815 102.991 117.206 105.334 118.347C107.721 119.508 110.293 121.223 113.41 122.334C121.074 125.065 134.479 127.717 138.669 128.433C142.105 129.02 144.822 128.335 147.526 128.027C148.224 127.873 148.937 127.618 149.661 127.36C150.385 127.101 151.098 126.847 151.833 126.584" stroke="white" stroke-width="6" stroke-linecap="round"/>
</svg>
