<svg width="244" height="174" viewBox="0 0 244 174" fill="none" xmlns="http://www.w3.org/2000/svg">
<path d="M10.1829 158.598C10.1829 159.16 10.1829 162.957 10.1829 168.063C10.1829 169.66 10.1829 169.239 11.1652 169.022C14.1123 168.805 16.9786 168.524 18.8158 168.099C19.8109 167.954 20.9336 167.954 22.0904 167.954" stroke="white" stroke-width="6" stroke-linecap="round"/>
<path d="M32.7222 167.529C34.6912 167.529 38.6674 167.81 50.324 168.024C52.8459 168.095 53.4072 168.235 53.9069 168.307C54.4066 168.38 54.8276 168.38 55.6866 168.805" stroke="white" stroke-width="6" stroke-linecap="round"/>
<path d="M67.594 167.954C69.4269 167.954 73.6668 167.393 78.3512 167.174C81.5395 167.025 84.307 168.66 87.2159 169.511C88.8404 169.655 90.2693 169.796 91.4005 170.078C91.9704 170.221 92.5317 170.361 93.9606 170.081" stroke="white" stroke-width="6" stroke-linecap="round"/>
<path d="M105.443 168.805C106.004 168.805 112.889 168.805 123.094 168.875C126.702 168.945 127.123 169.085 127.901 169.158C128.68 169.23 129.802 169.23 130.959 169.655" stroke="white" stroke-width="6" stroke-linecap="round"/>
<path d="M143.717 168.805C143.998 168.524 150.317 168.38 159.954 168.45C165.397 168.805 167.668 168.945 168.729 169.088C169.229 169.09 169.65 168.949 169.658 168.805" stroke="white" stroke-width="6" stroke-linecap="round"/>
<path d="M181.991 167.954C185.232 167.954 190.063 167.674 199.178 167.599C202.54 168.235 204.241 168.805 205.302 168.875C205.802 168.945 206.223 169.085 207.082 169.655" stroke="white" stroke-width="6" stroke-linecap="round"/>
<path d="M221.541 167.954C226.317 167.954 235.992 167.674 238.401 167.459C238.973 167.389 239.394 167.248 239.611 165.422C239.828 163.595 239.828 160.087 239.828 156.897" stroke="white" stroke-width="6" stroke-linecap="round"/>
<path d="M239.828 145.415C239.828 142.6 240.108 137.207 240.183 131.685C240.113 130.535 239.972 130.114 239.9 128.915C239.828 127.715 239.828 125.751 239.828 123.726" stroke="white" stroke-width="6" stroke-linecap="round"/>
<path d="M239.402 90.1301V110.543" stroke="white" stroke-width="6" stroke-linecap="round"/>
<path d="M239.402 77.7975C239.402 73.7234 238.841 65.1925 238.622 62.6388C238.833 61.6458 238.977 60.791 239.047 59.9426C239.118 59.5152 239.258 59.0942 239.402 58.6604" stroke="white" stroke-width="6" stroke-linecap="round"/>
<path d="M238.552 44.6265C238.552 44.3459 238.552 39.0088 238.622 30.9308C238.692 28.0453 238.832 27.6243 238.905 27.0566C238.977 26.4889 238.977 25.7872 238.552 25.0642" stroke="white" stroke-width="6" stroke-linecap="round"/>
<path d="M238.127 13.5819C238.127 13.3012 238.127 10.6305 237.004 6.80311C230.761 5.36145 225.972 5.07652 221.979 4.72355C220.988 4.65125 219.585 4.65125 218.139 5.07652" stroke="white" stroke-width="6" stroke-linecap="round"/>
<path d="M205.381 4.65137C204.82 4.65137 202.706 4.65137 199.731 4.72154C198.581 4.79171 198.16 4.93204 195.698 5.00434C193.235 5.07664 188.745 5.07664 184.118 5.07664" stroke="white" stroke-width="6" stroke-linecap="round"/>
<path d="M166.256 4.65129C163.156 4.65129 157.207 4.37061 153.938 3.87305C147.834 3.94109 146.133 4.22602 145.072 4.29619C144.572 4.36636 144.151 4.5067 143.717 4.65129" stroke="white" stroke-width="6" stroke-linecap="round"/>
<path d="M127.132 4.22607C126.29 4.22607 121.365 4.22607 114.35 4.29624C111.405 4.50675 110.41 4.93202 109.349 5.28712C108.849 5.36154 108.428 5.2212 107.569 4.65134" stroke="white" stroke-width="6" stroke-linecap="round"/>
<path d="M78.6509 5.50171H95.6616" stroke="white" stroke-width="6" stroke-linecap="round"/>
<path d="M69.2951 5.50171C69.0144 5.50171 68.7337 5.50171 65.7122 5.50171C62.6907 5.50171 56.9368 5.50171 51.0085 5.50171" stroke="white" stroke-width="6" stroke-linecap="round"/>
<path d="M39.5264 5.50168C38.4037 5.78236 34.4572 5.92695 29.1435 5.85678C26.7769 5.64628 25.9221 5.36135 25.0737 5.14871C24.6463 5.07642 24.2253 5.07642 23.7915 5.07642" stroke="white" stroke-width="6" stroke-linecap="round"/>
<path d="M9.75756 4.22603C8.48601 3.80076 6.78919 4.36211 4.44809 4.86181C2.8102 5.2114 5.50488 9.16765 5.85785 12.5719C5.78981 19.9567 5.36454 21.2325 5.15191 22.0809C5.07961 22.5083 5.07961 22.9293 5.07961 23.3631" stroke="white" stroke-width="6" stroke-linecap="round"/>
<path d="M6.35542 33.5696C6.35542 36.8016 6.07474 43.6229 5.85998 45.8237C5.78981 46.3234 5.64947 46.7444 5.57718 47.8033C5.50488 48.8622 5.50488 50.5463 5.50488 52.2814" stroke="white" stroke-width="6" stroke-linecap="round"/>
<path d="M5.93015 64.1887C5.93015 64.3291 5.93015 64.4694 5.93015 67.98C5.93015 71.4906 5.93015 78.3672 5.50488 85.4521" stroke="white" stroke-width="6" stroke-linecap="round"/>
<path d="M7.20605 96.5093C7.20605 96.79 7.20605 100.724 7.27622 106.745C7.48673 109.539 7.63132 110.679 7.70149 111.81C7.77166 112.38 7.912 112.942 8.05659 114.371" stroke="white" stroke-width="6" stroke-linecap="round"/>
<path d="M9.33247 125.427C9.05179 125.989 8.9072 126.699 8.83703 127.547C8.76686 127.975 8.62652 128.396 8.55423 131.279C8.48193 134.162 8.48193 139.495 8.48193 144.99" stroke="white" stroke-width="6" stroke-linecap="round"/>
<path d="M151.034 55.9107C151.234 54.7044 152.042 52.2858 152.048 49.8582C152.055 47.0495 148.615 45.412 147.19 43.1904C145.484 40.5293 143.147 39.1443 140.613 37.7319C137.212 35.836 133.425 35.3012 130.387 34.5981C124.007 33.1216 113.386 34.6829 110.333 36.0044C107.89 37.0614 106.69 40.1384 104.761 43.3692C102.225 47.6155 100.201 50.8432 98.8853 53.4769C97.6419 55.9665 96.7617 60.1295 96.2483 63.6786C95.8788 66.233 94.9389 70.2281 94.4255 76.5989C94.2529 78.7406 93.9181 87.5522 94.0184 100.075C94.0776 107.478 95.741 111.059 96.9501 113.587C98.6659 117.174 100.395 120.758 102.92 124.795C105.039 128.183 107.273 130.056 109.707 131.978C111.811 133.639 117.98 132.893 122.464 132.39C125.504 132.049 131.14 131.681 137.141 130.674C141.864 129.882 144.338 129.862 146.771 128.656C149.353 127.376 151.021 124.819 153.355 122.094C155.277 119.849 155.688 116.745 156.499 114.111C157.252 111.665 157.717 109.265 158.726 106.234C159.881 102.762 157.11 98.9601 155.497 96.0293C154.181 93.6392 151.653 91.6862 149.22 90.4648C146.928 89.3147 143.961 88.4493 140.616 86.9309C136.825 85.2097 130.217 83.6 125.526 82.0816C122.32 81.0436 119.45 80.7632 116.816 80.2601C113.231 79.5753 109.935 81.1633 106.389 82.1725C101.823 84.3941 99.3988 86.4126 96.9653 88.4342C96.3546 88.8433 95.7531 89.0433 94.5257 89.2494" stroke="white" stroke-width="6" stroke-linecap="round"/>
</svg>
