<svg width="244" height="174" viewBox="0 0 244 174" fill="none" xmlns="http://www.w3.org/2000/svg">
<path d="M10.1829 158.598C10.1829 159.16 10.1829 162.957 10.1829 168.063C10.1829 169.66 10.1829 169.239 11.1652 169.022C14.1123 168.805 16.9786 168.524 18.8158 168.099C19.8109 167.954 20.9336 167.954 22.0904 167.954" stroke="white" stroke-width="6" stroke-linecap="round"/>
<path d="M32.722 167.529C34.691 167.529 38.6673 167.81 50.3239 168.024C52.8457 168.095 53.4071 168.235 53.9068 168.307C54.4065 168.38 54.8275 168.38 55.6865 168.805" stroke="white" stroke-width="6" stroke-linecap="round"/>
<path d="M67.594 167.954C69.4269 167.954 73.6668 167.393 78.3512 167.174C81.5395 167.025 84.307 168.66 87.2159 169.511C88.8404 169.655 90.2693 169.796 91.4005 170.078C91.9704 170.221 92.5317 170.361 93.9606 170.081" stroke="white" stroke-width="6" stroke-linecap="round"/>
<path d="M105.443 168.805C106.004 168.805 112.889 168.805 123.094 168.875C126.702 168.945 127.123 169.085 127.901 169.158C128.68 169.23 129.802 169.23 130.959 169.655" stroke="white" stroke-width="6" stroke-linecap="round"/>
<path d="M143.717 168.805C143.998 168.524 150.317 168.38 159.954 168.45C165.397 168.805 167.668 168.945 168.729 169.088C169.229 169.09 169.65 168.949 169.658 168.805" stroke="white" stroke-width="6" stroke-linecap="round"/>
<path d="M181.991 167.954C185.232 167.954 190.063 167.674 199.178 167.599C202.54 168.235 204.241 168.805 205.302 168.875C205.802 168.945 206.223 169.085 207.082 169.655" stroke="white" stroke-width="6" stroke-linecap="round"/>
<path d="M221.541 167.954C226.317 167.954 235.992 167.674 238.401 167.459C238.973 167.389 239.394 167.248 239.611 165.422C239.828 163.595 239.828 160.087 239.828 156.897" stroke="white" stroke-width="6" stroke-linecap="round"/>
<path d="M239.828 145.415C239.828 142.6 240.108 137.207 240.183 131.685C240.113 130.535 239.972 130.114 239.9 128.915C239.828 127.715 239.828 125.751 239.828 123.726" stroke="white" stroke-width="6" stroke-linecap="round"/>
<path d="M239.402 90.1301V110.543" stroke="white" stroke-width="6" stroke-linecap="round"/>
<path d="M239.402 77.7975C239.402 73.7234 238.841 65.1925 238.622 62.6388C238.833 61.6458 238.977 60.791 239.047 59.9426C239.118 59.5152 239.258 59.0942 239.402 58.6604" stroke="white" stroke-width="6" stroke-linecap="round"/>
<path d="M238.552 44.6265C238.552 44.3459 238.552 39.0088 238.622 30.9308C238.692 28.0453 238.833 27.6243 238.905 27.0566C238.977 26.4889 238.977 25.7872 238.552 25.0642" stroke="white" stroke-width="6" stroke-linecap="round"/>
<path d="M238.127 13.5819C238.127 13.3012 238.127 10.6305 237.004 6.80311C230.761 5.36145 225.972 5.07652 221.979 4.72355C220.988 4.65125 219.585 4.65125 218.139 5.07652" stroke="white" stroke-width="6" stroke-linecap="round"/>
<path d="M205.381 4.65137C204.82 4.65137 202.706 4.65137 199.731 4.72154C198.581 4.79171 198.16 4.93204 195.698 5.00434C193.235 5.07664 188.744 5.07664 184.118 5.07664" stroke="white" stroke-width="6" stroke-linecap="round"/>
<path d="M166.256 4.65129C163.156 4.65129 157.207 4.37061 153.938 3.87305C147.834 3.94109 146.133 4.22602 145.072 4.29619C144.572 4.36636 144.151 4.5067 143.717 4.65129" stroke="white" stroke-width="6" stroke-linecap="round"/>
<path d="M127.132 4.22607C126.29 4.22607 121.365 4.22607 114.35 4.29624C111.405 4.50675 110.41 4.93202 109.349 5.28712C108.849 5.36154 108.428 5.2212 107.569 4.65134" stroke="white" stroke-width="6" stroke-linecap="round"/>
<path d="M78.651 5.50171H95.6617" stroke="white" stroke-width="6" stroke-linecap="round"/>
<path d="M69.2951 5.50171C69.0144 5.50171 68.7337 5.50171 65.7122 5.50171C62.6907 5.50171 56.9368 5.50171 51.0085 5.50171" stroke="white" stroke-width="6" stroke-linecap="round"/>
<path d="M39.5263 5.50168C38.4036 5.78236 34.4571 5.92695 29.1434 5.85678C26.7768 5.64628 25.922 5.36135 25.0736 5.14871C24.6462 5.07642 24.2252 5.07642 23.7914 5.07642" stroke="white" stroke-width="6" stroke-linecap="round"/>
<path d="M9.75756 4.22603C8.48601 3.80076 6.78919 4.36211 4.44809 4.86181C2.8102 5.2114 5.50488 9.16765 5.85785 12.5719C5.78981 19.9567 5.36454 21.2325 5.15191 22.0809C5.07961 22.5083 5.07961 22.9293 5.07961 23.3631" stroke="white" stroke-width="6" stroke-linecap="round"/>
<path d="M6.35542 33.5696C6.35542 36.8016 6.07474 43.6229 5.85998 45.8237C5.78981 46.3234 5.64947 46.7444 5.57718 47.8033C5.50488 48.8622 5.50488 50.5463 5.50488 52.2814" stroke="white" stroke-width="6" stroke-linecap="round"/>
<path d="M5.93015 64.1887C5.93015 64.3291 5.93015 64.4694 5.93015 67.98C5.93015 71.4906 5.93015 78.3672 5.50488 85.4521" stroke="white" stroke-width="6" stroke-linecap="round"/>
<path d="M7.20593 96.5093C7.20593 96.79 7.20593 100.724 7.2761 106.745C7.48661 109.539 7.6312 110.679 7.70137 111.81C7.77154 112.38 7.91188 112.942 8.05647 114.371" stroke="white" stroke-width="6" stroke-linecap="round"/>
<path d="M9.33235 125.427C9.05167 125.989 8.90708 126.699 8.83691 127.547C8.76674 127.975 8.6264 128.396 8.55411 131.279C8.48181 134.162 8.48181 139.495 8.48181 144.99" stroke="white" stroke-width="6" stroke-linecap="round"/>
<path d="M105.521 49.237C105.521 47.1789 105.935 42.6214 106.874 39.9198C107.769 37.3447 111.557 36.6027 114.484 36.0773C118.452 35.365 121.787 34.9364 125.54 34.3177C130.921 33.4307 136.812 34.5136 139.839 36.1737C142.866 37.8338 146.616 40.3084 148.714 43.1126C150.721 45.7959 151.011 49.0132 151.121 55.4298C151.201 60.0927 148.52 64.1469 146.432 67.6692C144.631 70.7074 141.433 74.0952 137.16 76.3771C127.185 81.7039 118.268 82.1906 115.132 82.3989C112.414 82.5793 110.33 80.7419 108.768 80.3284C108.028 80.1327 107.412 79.9149 108.539 79.8092C116.131 79.0971 119.069 79.0817 123.443 78.5657C134.444 77.2674 137.438 79.4921 140.049 80.5273C143.467 81.8825 145.577 84.6652 147.462 87.1554C149.272 89.5478 150.385 92.1264 151.221 94.7191C152.302 98.0706 152.89 102.274 152.999 110.863C153.047 114.632 150.811 116.997 149.872 119.487C148.872 122.139 147.681 124.458 146.015 127.051C143.802 130.498 136.036 131.086 119.044 134.512C115.581 135.21 114.311 135.041 113.466 134.733C109.918 133.441 106.786 130.278 103.552 128.313C99.6864 126.342 96.7689 123.861 94.5808 121.791C93.6323 120.951 93.0125 120.541 93 120.74" stroke="white" stroke-width="6" stroke-linecap="round"/>
</svg>
