<svg width="1350" height="1095" viewBox="0 0 1350 1095" fill="none" xmlns="http://www.w3.org/2000/svg">
<rect width="1350" height="1095" fill="#B3B3B3"/>
<path d="M55.3968 1009.88C112.085 1075.31 165.939 996.745 106.885 959.786" stroke="#959595" stroke-width="9" stroke-linecap="round"/>
<path d="M43.139 743.468C99.8277 808.9 153.682 730.332 94.6272 693.373" stroke="#959595" stroke-width="9" stroke-linecap="round"/>
<path d="M49.139 476.468C105.828 541.9 159.682 463.332 100.627 426.373" stroke="#959595" stroke-width="9" stroke-linecap="round"/>
<path d="M318.397 1009.88C375.085 1075.31 428.939 996.745 369.885 959.786" stroke="#959595" stroke-width="9" stroke-linecap="round"/>
<path d="M306.139 743.468C362.828 808.9 416.682 730.332 357.627 693.373" stroke="#959595" stroke-width="9" stroke-linecap="round"/>
<path d="M312.139 476.468C368.828 541.9 422.682 463.332 363.627 426.373" stroke="#959595" stroke-width="9" stroke-linecap="round"/>
<path d="M593.397 1009.88C650.085 1075.31 703.939 996.745 644.885 959.786" stroke="#959595" stroke-width="9" stroke-linecap="round"/>
<path d="M581.139 743.468C637.828 808.9 691.682 730.332 632.627 693.373" stroke="#959595" stroke-width="9" stroke-linecap="round"/>
<path d="M587.139 476.468C643.828 541.9 697.682 463.332 638.627 426.373" stroke="#959595" stroke-width="9" stroke-linecap="round"/>
<path d="M917.397 1009.88C974.085 1075.31 1027.94 996.745 968.885 959.786" stroke="#959595" stroke-width="9" stroke-linecap="round"/>
<path d="M905.139 743.468C961.828 808.9 1015.68 730.332 956.627 693.373" stroke="#959595" stroke-width="9" stroke-linecap="round"/>
<path d="M911.139 476.468C967.828 541.9 1021.68 463.332 962.627 426.373" stroke="#959595" stroke-width="9" stroke-linecap="round"/>
<path d="M1217.4 1009.88C1274.09 1075.31 1327.94 996.745 1268.88 959.786" stroke="#959595" stroke-width="9" stroke-linecap="round"/>
<path d="M1205.14 743.468C1261.83 808.9 1315.68 730.332 1256.63 693.373" stroke="#959595" stroke-width="9" stroke-linecap="round"/>
<path d="M1211.14 476.468C1267.83 541.9 1321.68 463.332 1262.63 426.373" stroke="#959595" stroke-width="9" stroke-linecap="round"/>
<path d="M52.139 209.468C108.828 274.9 162.682 196.332 103.627 159.373" stroke="#959595" stroke-width="9" stroke-linecap="round"/>
<path d="M315.139 209.468C371.828 274.9 425.682 196.332 366.627 159.373" stroke="#959595" stroke-width="9" stroke-linecap="round"/>
<path d="M590.139 209.468C646.828 274.9 700.682 196.332 641.627 159.373" stroke="#959595" stroke-width="9" stroke-linecap="round"/>
<path d="M914.139 209.468C970.828 274.9 1024.68 196.332 965.627 159.373" stroke="#959595" stroke-width="9" stroke-linecap="round"/>
<path d="M1214.14 209.468C1270.83 274.9 1324.68 196.332 1265.63 159.373" stroke="#959595" stroke-width="9" stroke-linecap="round"/>
<path d="M166.361 907.83C167.255 906.489 174.422 899.763 185.477 890.059C189.826 886.391 191.615 885.273 192.983 884.362C194.351 883.451 195.245 882.78 194.812 882.767" stroke="#E3E3E3" stroke-width="8" stroke-linecap="round"/>
<path d="M188.583 905.951C189.128 905.407 190.77 904.309 193.377 902.663C195.713 901.017 199.558 899.086 204.364 897.164C206.448 896.33 207.809 895.786 208.387 894.399" stroke="#E3E3E3" stroke-width="8" stroke-linecap="round"/>
<path d="M565.458 601.937C565.76 601.937 566.061 601.937 574.962 599.976C583.863 598.016 601.353 594.096 618.46 590.057" stroke="#E3E3E3" stroke-width="8" stroke-linecap="round"/>
<path d="M582.821 611.075C583.424 611.075 586.75 610.773 593.279 609.864C600.713 608.352 610.482 606.816 620.521 605.903C624.829 605.592 627.543 605.592 630.34 606.506" stroke="#E3E3E3" stroke-width="8" stroke-linecap="round"/>
<path d="M527.077 339.668C530.102 338.764 539.213 335.721 548.671 332.371C550.818 331.453 552.628 330.548 554.766 329.932C556.905 329.315 559.317 329.013 561.803 328.702" stroke="#E3E3E3" stroke-width="8" stroke-linecap="round"/>
<path d="M1077.2 410.033C1077.2 409.43 1078.71 407.913 1083.26 403.974C1090.82 397.02 1096.99 392.067 1099.87 390.701C1101.25 389.938 1102.46 389.033 1100.05 389.929" stroke="#CFCFCF" stroke-width="8" stroke-linecap="round"/>
<path d="M1005.92 641.231C1006.83 640.326 1007.73 639.422 1010.16 636.995C1012.58 634.569 1016.5 630.649 1017.77 628.931C1019.04 627.213 1017.53 627.816 1015.97 628.438" stroke="#CFCFCF" stroke-width="8" stroke-linecap="round"/>
<path d="M790.259 988.485C792.672 984.866 795.084 981.248 802.208 970.789C809.331 960.33 821.092 943.141 830.468 930.366C839.844 917.59 846.478 909.75 851.486 902.585" stroke="#CFCFCF" stroke-width="8" stroke-linecap="round"/>
<path d="M824.071 970.209C826.191 969.002 831.053 964.744 838.966 957.292C840.812 955.596 842.018 954.692 843.243 953.623C844.468 952.553 845.674 951.347 845.089 952.846" stroke="#CFCFCF" stroke-width="8" stroke-linecap="round"/>
<path d="M150.581 352.462C150.882 351.256 151.184 350.049 152.696 346.262C154.209 342.474 156.923 336.141 159.527 326.998C162.132 317.855 164.544 306.094 167.943 293.977" stroke="#CFCFCF" stroke-width="8" stroke-linecap="round"/>
<path d="M1207.88 870.602C1202.42 867.266 1194.5 862.395 1188.41 857.826C1184.47 855.395 1180.78 853.851 1176.24 852.64C1173.2 851.731 1168.67 850.223 1162.19 846.842" stroke="#CFCFCF" stroke-width="8" stroke-linecap="round"/>
<path d="M1199.65 836.79C1200.26 837.092 1200.86 837.393 1203.43 842.223C1206 847.052 1210.53 856.401 1213.16 862.121C1215.79 867.842 1216.39 869.651 1217.93 872.429" stroke="#CFCFCF" stroke-width="8" stroke-linecap="round"/>
<path d="M852.4 121.264C853.003 121.264 853.606 121.264 868.844 117.796C884.082 114.328 913.937 107.392 946.524 99.3319" stroke="#CFCFCF" stroke-width="8" stroke-linecap="round"/>
<path d="M797.57 246.458C799.379 248.267 802.422 252.818 806.073 259.357C808.518 264.387 810.053 268.975 811.117 276.098C811.579 280.809 811.88 287.745 811.277 295.805" stroke="#CFCFCF" stroke-width="8" stroke-linecap="round"/>
<path d="M791.173 281.183C791.173 282.691 791.173 284.199 790.721 287.69C790.268 291.181 789.364 296.609 788.445 301.064C787.527 305.519 786.622 308.836 784.776 315.909" stroke="#CFCFCF" stroke-width="8" stroke-linecap="round"/>
</svg>
