<svg width="1280" height="720" viewBox="0 0 1280 720" fill="none" xmlns="http://www.w3.org/2000/svg">
<g clip-path="url(#clip0_25_4)">
<rect width="1280" height="720" fill="white"/>
<g filter="url(#filter0_n_25_4)">
<rect x="-4.40976" y="-3.28833" width="1287.71" height="728.82" fill="#8CD258"/>
</g>
<path d="M1062.93 601.92L1068.04 607.923" stroke="#AFE36B" stroke-width="5" stroke-linecap="round"/>
<path d="M1112.73 579.313L1119.86 582.649" stroke="#AFE36B" stroke-width="5" stroke-linecap="round"/>
<path d="M1065.73 547.79L1071.46 553.194" stroke="#AFE36B" stroke-width="5" stroke-linecap="round"/>
<path d="M990.547 592.915L998.11 595.056" stroke="#AFE36B" stroke-width="5" stroke-linecap="round"/>
<path d="M1224.63 520.276L1221.34 513.095" stroke="#AFE36B" stroke-width="5" stroke-linecap="round"/>
<path d="M1142.88 555.576L1135.86 559.123" stroke="#AFE36B" stroke-width="5" stroke-linecap="round"/>
<path d="M1212.65 615.133L1205.07 613.04" stroke="#AFE36B" stroke-width="5" stroke-linecap="round"/>
<path d="M1152.69 609.657L1147.76 615.812" stroke="#AFE36B" stroke-width="5" stroke-linecap="round"/>
<path d="M1194.42 571.338L1187.83 575.638" stroke="#AFE36B" stroke-width="5" stroke-linecap="round"/>
<path d="M1168.99 487.055L1165.1 493.926" stroke="#AFE36B" stroke-width="5" stroke-linecap="round"/>
<path d="M1049.69 702.811L1043.26 698.269" stroke="#AFE36B" stroke-width="5" stroke-linecap="round"/>
<path d="M1098.89 628.233L1103.62 621.92" stroke="#AFE36B" stroke-width="5" stroke-linecap="round"/>
<path d="M1144.59 707.987L1143.9 700.111" stroke="#AFE36B" stroke-width="5" stroke-linecap="round"/>
<path d="M1150 647.662L1156.9 643.885" stroke="#AFE36B" stroke-width="5" stroke-linecap="round"/>
<path d="M1105.04 682.081L1110.43 676.327" stroke="#AFE36B" stroke-width="5" stroke-linecap="round"/>
<path d="M1265.34 699.545L1262.51 706.919" stroke="#AFE36B" stroke-width="5" stroke-linecap="round"/>
<path d="M1181.56 669.457L1174.33 666.359" stroke="#AFE36B" stroke-width="5" stroke-linecap="round"/>
<path d="M1247.49 605.628L1240.06 608.193" stroke="#AFE36B" stroke-width="5" stroke-linecap="round"/>
<path d="M36.3744 67.9852L30.2375 72.9223" stroke="#AFE36B" stroke-width="5" stroke-linecap="round"/>
<path d="M130.758 56.8492L130.564 64.7527" stroke="#AFE36B" stroke-width="5" stroke-linecap="round"/>
<path d="M139.91 116.715L147.034 120.051" stroke="#AFE36B" stroke-width="5" stroke-linecap="round"/>
<path d="M92.9013 85.1923L98.637 90.5957" stroke="#AFE36B" stroke-width="5" stroke-linecap="round"/>
<path d="M17.7227 130.316L25.2862 132.458" stroke="#AFE36B" stroke-width="5" stroke-linecap="round"/>
<path d="M251.802 57.6786L248.518 50.4967" stroke="#AFE36B" stroke-width="5" stroke-linecap="round"/>
<path d="M170.055 92.9777L163.033 96.525" stroke="#AFE36B" stroke-width="5" stroke-linecap="round"/>
<path d="M239.822 152.534L232.245 150.442" stroke="#AFE36B" stroke-width="5" stroke-linecap="round"/>
<path d="M179.871 147.059L174.938 153.213" stroke="#AFE36B" stroke-width="5" stroke-linecap="round"/>
<path d="M196.167 24.4573L192.28 31.3282" stroke="#AFE36B" stroke-width="5" stroke-linecap="round"/>
<path d="M76.8703 240.212L70.4386 235.671" stroke="#AFE36B" stroke-width="5" stroke-linecap="round"/>
<path d="M126.063 165.635L130.792 159.322" stroke="#AFE36B" stroke-width="5" stroke-linecap="round"/>
<path d="M171.762 245.389L171.076 237.513" stroke="#AFE36B" stroke-width="5" stroke-linecap="round"/>
<path d="M177.176 185.064L184.078 181.287" stroke="#AFE36B" stroke-width="5" stroke-linecap="round"/>
<path d="M132.217 219.483L137.606 213.729" stroke="#AFE36B" stroke-width="5" stroke-linecap="round"/>
<path d="M54.382 179.177L61.7976 176.563" stroke="#AFE36B" stroke-width="5" stroke-linecap="round"/>
<path d="M292.517 236.947L289.685 244.321" stroke="#AFE36B" stroke-width="5" stroke-linecap="round"/>
<path d="M208.736 206.859L201.507 203.761" stroke="#AFE36B" stroke-width="5" stroke-linecap="round"/>
<path d="M274.666 143.03L267.233 145.595" stroke="#AFE36B" stroke-width="5" stroke-linecap="round"/>
<path d="M259.197 187.885L252.349 184.008" stroke="#AFE36B" stroke-width="5" stroke-linecap="round"/>
<path d="M239.055 273.603L234.749 266.99" stroke="#AFE36B" stroke-width="5" stroke-linecap="round"/>
<path d="M352.323 187.301L351.49 195.163" stroke="#AFE36B" stroke-width="5" stroke-linecap="round"/>
<path d="M440.505 199.096L448.342 199.666" stroke="#AFE36B" stroke-width="5" stroke-linecap="round"/>
<path d="M410.884 111.995L416.327 117.696" stroke="#AFE36B" stroke-width="5" stroke-linecap="round"/>
<path d="M459.594 147.584L466.963 144.839" stroke="#AFE36B" stroke-width="5" stroke-linecap="round"/>
<path d="M404.254 159.003L412.106 158.706" stroke="#AFE36B" stroke-width="5" stroke-linecap="round"/>
<path d="M383.208 244.5L390.043 240.601" stroke="#AFE36B" stroke-width="5" stroke-linecap="round"/>
<path d="M464.048 109.33L461.611 116.846" stroke="#AFE36B" stroke-width="5" stroke-linecap="round"/>
<path d="M555.198 101.371L548.388 105.315" stroke="#AFE36B" stroke-width="5" stroke-linecap="round"/>
<path d="M509.142 140.373L510.016 148.23" stroke="#AFE36B" stroke-width="5" stroke-linecap="round"/>
<path d="M511.449 83.5791L509.846 91.3187" stroke="#AFE36B" stroke-width="5" stroke-linecap="round"/>
<path d="M434.044 42.4423L436.16 50.0561" stroke="#AFE36B" stroke-width="5" stroke-linecap="round"/>
<path d="M502.427 279.559L494.695 280.96" stroke="#AFE36B" stroke-width="5" stroke-linecap="round"/>
<path d="M484.39 191.91L483.261 184.086" stroke="#AFE36B" stroke-width="5" stroke-linecap="round"/>
<path d="M572.863 215.37L566.82 210.317" stroke="#AFE36B" stroke-width="5" stroke-linecap="round"/>
<path d="M526.742 225.406L526.472 217.505" stroke="#AFE36B" stroke-width="5" stroke-linecap="round"/>
<path d="M443.505 252.68L446.879 245.54" stroke="#AFE36B" stroke-width="5" stroke-linecap="round"/>
<path d="M651.884 123.108L655.098 130.322" stroke="#AFE36B" stroke-width="5" stroke-linecap="round"/>
<path d="M537.661 118.802L529.81 118.491" stroke="#AFE36B" stroke-width="5" stroke-linecap="round"/>
<path d="M593.794 112.399L586.237 114.566" stroke="#AFE36B" stroke-width="5" stroke-linecap="round"/>
<path d="M628.03 180.62L620.33 179.044" stroke="#AFE36B" stroke-width="5" stroke-linecap="round"/>
<path d="M361.887 374.324L369.382 371.953" stroke="#AFE36B" stroke-width="5" stroke-linecap="round"/>
<path d="M352.998 465.948L356.991 459.139" stroke="#AFE36B" stroke-width="5" stroke-linecap="round"/>
<path d="M392.253 420.028L400.052 420.992" stroke="#AFE36B" stroke-width="5" stroke-linecap="round"/>
<path d="M335.787 421.74L343.495 420.21" stroke="#AFE36B" stroke-width="5" stroke-linecap="round"/>
<path d="M295.736 343.419L303.28 345.629" stroke="#AFE36B" stroke-width="5" stroke-linecap="round"/>
<path d="M456.135 529.705L449.57 534.049" stroke="#AFE36B" stroke-width="5" stroke-linecap="round"/>
<path d="M405.343 456.221L401.251 449.472" stroke="#AFE36B" stroke-width="5" stroke-linecap="round"/>
<path d="M495.865 442.843L488.335 440.584" stroke="#AFE36B" stroke-width="5" stroke-linecap="round"/>
<path d="M442.119 415.563L441.171 407.714" stroke="#AFE36B" stroke-width="5" stroke-linecap="round"/>
<path d="M457.365 470.295L454.033 463.135" stroke="#AFE36B" stroke-width="5" stroke-linecap="round"/>
<path d="M391.456 528.264L391.773 520.364" stroke="#AFE36B" stroke-width="5" stroke-linecap="round"/>
<path d="M403.726 281.675L395.881 282.103" stroke="#AFE36B" stroke-width="5" stroke-linecap="round"/>
<path d="M486.961 327.816L482.237 334.133" stroke="#AFE36B" stroke-width="5" stroke-linecap="round"/>
<path d="M459.823 381.882L463.693 388.762" stroke="#AFE36B" stroke-width="5" stroke-linecap="round"/>
<path d="M439.782 328.737L441.328 336.489" stroke="#AFE36B" stroke-width="5" stroke-linecap="round"/>
<path d="M352.541 321.485L357.458 327.651" stroke="#AFE36B" stroke-width="5" stroke-linecap="round"/>
<path d="M584.976 399.286L586.452 391.52" stroke="#AFE36B" stroke-width="5" stroke-linecap="round"/>
<path d="M498.065 380.197L490.302 378.976" stroke="#AFE36B" stroke-width="5" stroke-linecap="round"/>
<path d="M520.429 469.463L515.473 463.329" stroke="#AFE36B" stroke-width="5" stroke-linecap="round"/>
<path d="M474.81 429.945L467.241 432.067" stroke="#AFE36B" stroke-width="5" stroke-linecap="round"/>
<path d="M530.898 423.167L523.049 422.811" stroke="#AFE36B" stroke-width="5" stroke-linecap="round"/>
<path d="M558.897 339.714L551.765 343.031" stroke="#AFE36B" stroke-width="5" stroke-linecap="round"/>
<path d="M9.94452 454.813L13.9368 448.004" stroke="#AFE36B" stroke-width="5" stroke-linecap="round"/>
<path d="M49.1992 408.893L56.9979 409.857" stroke="#AFE36B" stroke-width="5" stroke-linecap="round"/>
<path d="M113.082 518.57L106.517 522.914" stroke="#AFE36B" stroke-width="5" stroke-linecap="round"/>
<path d="M62.2893 445.087L58.1974 438.337" stroke="#AFE36B" stroke-width="5" stroke-linecap="round"/>
<path d="M152.811 431.709L145.281 429.449" stroke="#AFE36B" stroke-width="5" stroke-linecap="round"/>
<path d="M99.0652 404.428L98.1173 396.58" stroke="#AFE36B" stroke-width="5" stroke-linecap="round"/>
<path d="M114.311 459.16L110.979 452" stroke="#AFE36B" stroke-width="5" stroke-linecap="round"/>
<path d="M48.4025 517.129L48.7188 509.229" stroke="#AFE36B" stroke-width="5" stroke-linecap="round"/>
<path d="M116.769 370.747L120.639 377.628" stroke="#AFE36B" stroke-width="5" stroke-linecap="round"/>
<path d="M96.7286 317.602L98.2742 325.354" stroke="#AFE36B" stroke-width="5" stroke-linecap="round"/>
<path d="M9.48712 310.35L14.4044 316.517" stroke="#AFE36B" stroke-width="5" stroke-linecap="round"/>
<path d="M241.922 388.151L243.398 380.386" stroke="#AFE36B" stroke-width="5" stroke-linecap="round"/>
<path d="M155.011 369.062L147.248 367.842" stroke="#AFE36B" stroke-width="5" stroke-linecap="round"/>
<path d="M131.756 418.81L124.187 420.933" stroke="#AFE36B" stroke-width="5" stroke-linecap="round"/>
<path d="M187.845 412.033L179.995 411.676" stroke="#AFE36B" stroke-width="5" stroke-linecap="round"/>
<path d="M215.843 328.579L208.711 331.896" stroke="#AFE36B" stroke-width="5" stroke-linecap="round"/>
<path d="M110.769 628.932L108.159 621.475" stroke="#AFE36B" stroke-width="5" stroke-linecap="round"/>
<path d="M193.881 597.019L201.376 594.648" stroke="#AFE36B" stroke-width="5" stroke-linecap="round"/>
<path d="M184.992 688.643L188.985 681.834" stroke="#AFE36B" stroke-width="5" stroke-linecap="round"/>
<path d="M224.247 642.723L232.046 643.687" stroke="#AFE36B" stroke-width="5" stroke-linecap="round"/>
<path d="M167.781 644.435L175.49 642.905" stroke="#AFE36B" stroke-width="5" stroke-linecap="round"/>
<path d="M127.73 566.113L135.274 568.324" stroke="#AFE36B" stroke-width="5" stroke-linecap="round"/>
<path d="M237.337 678.916L233.245 672.167" stroke="#AFE36B" stroke-width="5" stroke-linecap="round"/>
<path d="M327.859 665.538L320.329 663.279" stroke="#AFE36B" stroke-width="5" stroke-linecap="round"/>
<path d="M274.113 638.257L273.165 630.409" stroke="#AFE36B" stroke-width="5" stroke-linecap="round"/>
<path d="M235.721 504.369L227.875 504.797" stroke="#AFE36B" stroke-width="5" stroke-linecap="round"/>
<path d="M238.231 593.842L238.923 601.717" stroke="#AFE36B" stroke-width="5" stroke-linecap="round"/>
<path d="M318.955 550.51L314.231 556.828" stroke="#AFE36B" stroke-width="5" stroke-linecap="round"/>
<path d="M291.817 604.577L295.687 611.457" stroke="#AFE36B" stroke-width="5" stroke-linecap="round"/>
<path d="M271.777 551.432L273.322 559.184" stroke="#AFE36B" stroke-width="5" stroke-linecap="round"/>
<path d="M184.535 544.18L189.452 550.346" stroke="#AFE36B" stroke-width="5" stroke-linecap="round"/>
<path d="M416.97 621.98L418.446 614.215" stroke="#AFE36B" stroke-width="5" stroke-linecap="round"/>
<path d="M330.059 602.892L322.296 601.671" stroke="#AFE36B" stroke-width="5" stroke-linecap="round"/>
<path d="M352.423 692.158L347.467 686.024" stroke="#AFE36B" stroke-width="5" stroke-linecap="round"/>
<path d="M306.804 652.639L299.235 654.762" stroke="#AFE36B" stroke-width="5" stroke-linecap="round"/>
<path d="M390.891 562.408L383.759 565.726" stroke="#AFE36B" stroke-width="5" stroke-linecap="round"/>
<path d="M634.519 275.124L642.014 272.753" stroke="#AFE36B" stroke-width="5" stroke-linecap="round"/>
<path d="M625.63 366.748L629.623 359.938" stroke="#AFE36B" stroke-width="5" stroke-linecap="round"/>
<path d="M608.419 322.54L616.128 321.009" stroke="#AFE36B" stroke-width="5" stroke-linecap="round"/>
<path d="M568.368 244.218L575.912 246.429" stroke="#AFE36B" stroke-width="5" stroke-linecap="round"/>
<path d="M728.767 430.505L722.203 434.849" stroke="#AFE36B" stroke-width="5" stroke-linecap="round"/>
<path d="M677.975 357.021L673.883 350.272" stroke="#AFE36B" stroke-width="5" stroke-linecap="round"/>
<path d="M768.497 343.643L760.967 341.384" stroke="#AFE36B" stroke-width="5" stroke-linecap="round"/>
<path d="M714.751 316.362L713.803 308.514" stroke="#AFE36B" stroke-width="5" stroke-linecap="round"/>
<path d="M729.996 371.095L726.665 363.935" stroke="#AFE36B" stroke-width="5" stroke-linecap="round"/>
<path d="M664.088 429.063L664.405 421.164" stroke="#AFE36B" stroke-width="5" stroke-linecap="round"/>
<path d="M676.359 182.474L668.513 182.902" stroke="#AFE36B" stroke-width="5" stroke-linecap="round"/>
<path d="M678.869 271.947L679.56 279.822" stroke="#AFE36B" stroke-width="5" stroke-linecap="round"/>
<path d="M759.593 228.615L754.869 234.933" stroke="#AFE36B" stroke-width="5" stroke-linecap="round"/>
<path d="M732.455 282.682L736.325 289.562" stroke="#AFE36B" stroke-width="5" stroke-linecap="round"/>
<path d="M712.414 229.537L713.96 237.288" stroke="#AFE36B" stroke-width="5" stroke-linecap="round"/>
<path d="M770.697 280.997L762.934 279.776" stroke="#AFE36B" stroke-width="5" stroke-linecap="round"/>
<path d="M793.061 370.263L788.105 364.129" stroke="#AFE36B" stroke-width="5" stroke-linecap="round"/>
<path d="M747.442 330.745L739.873 332.867" stroke="#AFE36B" stroke-width="5" stroke-linecap="round"/>
<path d="M803.53 323.967L795.681 323.61" stroke="#AFE36B" stroke-width="5" stroke-linecap="round"/>
<path d="M831.529 240.513L824.397 243.831" stroke="#AFE36B" stroke-width="5" stroke-linecap="round"/>
<path d="M871.833 280.323L865.952 275.08" stroke="#AFE36B" stroke-width="5" stroke-linecap="round"/>
<path d="M975.949 123.819L973.339 116.362" stroke="#AFE36B" stroke-width="5" stroke-linecap="round"/>
<path d="M1050.17 183.53L1054.16 176.721" stroke="#AFE36B" stroke-width="5" stroke-linecap="round"/>
<path d="M1089.43 137.61L1097.23 138.574" stroke="#AFE36B" stroke-width="5" stroke-linecap="round"/>
<path d="M1032.96 139.322L1040.67 137.792" stroke="#AFE36B" stroke-width="5" stroke-linecap="round"/>
<path d="M992.91 61.001L1000.45 63.2117" stroke="#AFE36B" stroke-width="5" stroke-linecap="round"/>
<path d="M1153.31 247.287L1146.74 251.631" stroke="#AFE36B" stroke-width="5" stroke-linecap="round"/>
<path d="M1102.52 173.803L1098.42 167.054" stroke="#AFE36B" stroke-width="5" stroke-linecap="round"/>
<path d="M1193.04 160.426L1185.51 158.166" stroke="#AFE36B" stroke-width="5" stroke-linecap="round"/>
<path d="M1139.29 133.145L1138.34 125.297" stroke="#AFE36B" stroke-width="5" stroke-linecap="round"/>
<path d="M1154.54 187.878L1151.21 180.718" stroke="#AFE36B" stroke-width="5" stroke-linecap="round"/>
<path d="M1088.63 245.846L1088.95 237.947" stroke="#AFE36B" stroke-width="5" stroke-linecap="round"/>
<path d="M1100.9 -0.743042L1093.05 -0.315038" stroke="#AFE36B" stroke-width="5" stroke-linecap="round"/>
<path d="M1103.41 88.7296L1104.1 96.6048" stroke="#AFE36B" stroke-width="5" stroke-linecap="round"/>
<path d="M1184.13 45.3981L1179.41 51.7155" stroke="#AFE36B" stroke-width="5" stroke-linecap="round"/>
<path d="M1136.96 46.3195L1138.5 54.0709" stroke="#AFE36B" stroke-width="5" stroke-linecap="round"/>
<path d="M1049.71 39.0675L1054.63 45.2339" stroke="#AFE36B" stroke-width="5" stroke-linecap="round"/>
<path d="M1282.15 116.868L1283.63 109.103" stroke="#AFE36B" stroke-width="5" stroke-linecap="round"/>
<path d="M1195.24 97.7793L1187.48 96.5588" stroke="#AFE36B" stroke-width="5" stroke-linecap="round"/>
<path d="M1217.6 187.046L1212.65 180.911" stroke="#AFE36B" stroke-width="5" stroke-linecap="round"/>
<path d="M1228.07 140.75L1220.22 140.393" stroke="#AFE36B" stroke-width="5" stroke-linecap="round"/>
<path d="M1256.07 57.296L1248.94 60.6136" stroke="#AFE36B" stroke-width="5" stroke-linecap="round"/>
<path d="M635.913 58.0228L633.303 50.5658" stroke="#AFE36B" stroke-width="5" stroke-linecap="round"/>
<path d="M719.025 26.1101L726.52 23.7388" stroke="#AFE36B" stroke-width="5" stroke-linecap="round"/>
<path d="M710.136 117.734L714.129 110.925" stroke="#AFE36B" stroke-width="5" stroke-linecap="round"/>
<path d="M749.391 71.8138L757.19 72.7775" stroke="#AFE36B" stroke-width="5" stroke-linecap="round"/>
<path d="M692.925 73.5259L700.634 71.9957" stroke="#AFE36B" stroke-width="5" stroke-linecap="round"/>
<path d="M652.874 -4.79553L660.418 -2.5848" stroke="#AFE36B" stroke-width="5" stroke-linecap="round"/>
<path d="M813.273 181.491L806.709 185.835" stroke="#AFE36B" stroke-width="5" stroke-linecap="round"/>
<path d="M762.481 108.007L758.389 101.258" stroke="#AFE36B" stroke-width="5" stroke-linecap="round"/>
<path d="M853.003 94.6293L845.473 92.3697" stroke="#AFE36B" stroke-width="5" stroke-linecap="round"/>
<path d="M799.257 67.3485L798.309 59.5003" stroke="#AFE36B" stroke-width="5" stroke-linecap="round"/>
<path d="M814.503 122.081L811.171 114.921" stroke="#AFE36B" stroke-width="5" stroke-linecap="round"/>
<path d="M748.594 180.05L748.911 172.15" stroke="#AFE36B" stroke-width="5" stroke-linecap="round"/>
<path d="M816.961 33.6676L820.831 40.5482" stroke="#AFE36B" stroke-width="5" stroke-linecap="round"/>
<path d="M942.114 51.0715L943.59 43.3064" stroke="#AFE36B" stroke-width="5" stroke-linecap="round"/>
<path d="M855.203 31.9827L847.44 30.7622" stroke="#AFE36B" stroke-width="5" stroke-linecap="round"/>
<path d="M877.567 121.249L872.611 115.115" stroke="#AFE36B" stroke-width="5" stroke-linecap="round"/>
<path d="M899.997 197.762L892.818 194.548" stroke="#AFE36B" stroke-width="5" stroke-linecap="round"/>
<path d="M936.749 244.023L936.837 251.928" stroke="#AFE36B" stroke-width="5" stroke-linecap="round"/>
<path d="M888.037 74.9534L880.187 74.5966" stroke="#AFE36B" stroke-width="5" stroke-linecap="round"/>
<path d="M916.035 -8.50049L908.903 -5.18286" stroke="#AFE36B" stroke-width="5" stroke-linecap="round"/>
<path d="M974.679 216.901L981.387 212.785" stroke="#AFE36B" stroke-width="5" stroke-linecap="round"/>
<path d="M1022.95 292.083L1026.82 298.968" stroke="#AFE36B" stroke-width="5" stroke-linecap="round"/>
<path d="M932.032 302.351L939.481 304.867" stroke="#AFE36B" stroke-width="5" stroke-linecap="round"/>
<path d="M971.44 276.234L974.527 283.504" stroke="#AFE36B" stroke-width="5" stroke-linecap="round"/>
<path d="M891.454 417.1L885.868 411.54" stroke="#AFE36B" stroke-width="5" stroke-linecap="round"/>
<path d="M952.353 351.854L958.066 346.426" stroke="#AFE36B" stroke-width="5" stroke-linecap="round"/>
<path d="M984.148 438.176L984.782 430.296" stroke="#AFE36B" stroke-width="5" stroke-linecap="round"/>
<path d="M999.515 379.613L1006.95 377.051" stroke="#AFE36B" stroke-width="5" stroke-linecap="round"/>
<path d="M879.431 353.139L887.177 351.81" stroke="#AFE36B" stroke-width="5" stroke-linecap="round"/>
<path d="M1121.71 314.035L1119.67 306.401" stroke="#AFE36B" stroke-width="5" stroke-linecap="round"/>
<path d="M1237.62 371.1L1244.26 366.875" stroke="#AFE36B" stroke-width="5" stroke-linecap="round"/>
<path d="M1218.69 264.89L1225.78 268.311" stroke="#AFE36B" stroke-width="5" stroke-linecap="round"/>
<path d="M1035.25 335.076L1027.74 337.391" stroke="#AFE36B" stroke-width="5" stroke-linecap="round"/>
<path d="M1094.13 405.537L1087.01 402.199" stroke="#AFE36B" stroke-width="5" stroke-linecap="round"/>
<path d="M1035.93 390.048L1030.05 395.285" stroke="#AFE36B" stroke-width="5" stroke-linecap="round"/>
<path d="M1083.44 359.292L1076.23 362.422" stroke="#AFE36B" stroke-width="5" stroke-linecap="round"/>
<path d="M1072.39 271.917L1067.41 278.037" stroke="#AFE36B" stroke-width="5" stroke-linecap="round"/>
<path d="M1044.99 516.846L1052.85 516.687" stroke="#AFE36B" stroke-width="5" stroke-linecap="round"/>
<path d="M1045.51 427.339L1045.08 419.445" stroke="#AFE36B" stroke-width="5" stroke-linecap="round"/>
<path d="M963.366 467.879L968.301 461.727" stroke="#AFE36B" stroke-width="5" stroke-linecap="round"/>
<path d="M1010.55 468.575L1009.27 460.775" stroke="#AFE36B" stroke-width="5" stroke-linecap="round"/>
<path d="M1097.49 478.812L1092.79 472.481" stroke="#AFE36B" stroke-width="5" stroke-linecap="round"/>
<path d="M548.939 498.182L552.367 491.069" stroke="#AFE36B" stroke-width="5" stroke-linecap="round"/>
<path d="M629.962 535.135L636.911 538.825" stroke="#AFE36B" stroke-width="5" stroke-linecap="round"/>
<path d="M559.014 593.262L566.631 591.324" stroke="#AFE36B" stroke-width="5" stroke-linecap="round"/>
<path d="M619.062 589.007L623.87 595.26" stroke="#AFE36B" stroke-width="5" stroke-linecap="round"/>
<path d="M578.115 549.847L584.62 554.281" stroke="#AFE36B" stroke-width="5" stroke-linecap="round"/>
<path d="M605.23 466.099L608.978 473.047" stroke="#AFE36B" stroke-width="5" stroke-linecap="round"/>
<path d="M586.58 711.858L578.892 710.223" stroke="#AFE36B" stroke-width="5" stroke-linecap="round"/>
<path d="M602.719 623.835L604.605 616.16" stroke="#AFE36B" stroke-width="5" stroke-linecap="round"/>
<path d="M675.87 679.129L672.167 672.157" stroke="#AFE36B" stroke-width="5" stroke-linecap="round"/>
<path d="M657.309 621.51L662.183 615.31" stroke="#AFE36B" stroke-width="5" stroke-linecap="round"/>
<path d="M629.392 670.927L632.103 663.506" stroke="#AFE36B" stroke-width="5" stroke-linecap="round"/>
<path d="M542.079 664.609L547.879 659.276" stroke="#AFE36B" stroke-width="5" stroke-linecap="round"/>
<path d="M724.824 499.842L719.001 494.535" stroke="#AFE36B" stroke-width="5" stroke-linecap="round"/>
<path d="M663.417 564.603L658.343 570.64" stroke="#AFE36B" stroke-width="5" stroke-linecap="round"/>
<path d="M693.549 610.463L691.414 618.072" stroke="#AFE36B" stroke-width="5" stroke-linecap="round"/>
<path d="M660.693 491.269L659.8 499.124" stroke="#AFE36B" stroke-width="5" stroke-linecap="round"/>
<path d="M769.338 712.176L775.859 707.766" stroke="#AFE36B" stroke-width="5" stroke-linecap="round"/>
<path d="M721.652 636.614L717.05 630.206" stroke="#AFE36B" stroke-width="5" stroke-linecap="round"/>
<path d="M674.362 715.423L675.205 707.562" stroke="#AFE36B" stroke-width="5" stroke-linecap="round"/>
<path d="M670.16 655L663.334 651.084" stroke="#AFE36B" stroke-width="5" stroke-linecap="round"/>
<path d="M714.418 690.326L709.146 684.464" stroke="#AFE36B" stroke-width="5" stroke-linecap="round"/>
<path d="M793.047 651.609L785.685 648.845" stroke="#AFE36B" stroke-width="5" stroke-linecap="round"/>
<path d="M827.142 649.703L834.092 646.013" stroke="#AFE36B" stroke-width="5" stroke-linecap="round"/>
<path d="M756.194 591.575L763.812 593.514" stroke="#AFE36B" stroke-width="5" stroke-linecap="round"/>
<path d="M775.295 634.991L781.801 630.557" stroke="#AFE36B" stroke-width="5" stroke-linecap="round"/>
<path d="M802.41 718.74L806.158 711.791" stroke="#AFE36B" stroke-width="5" stroke-linecap="round"/>
<path d="M783.76 472.98L776.073 474.615" stroke="#AFE36B" stroke-width="5" stroke-linecap="round"/>
<path d="M799.9 561.003L801.785 568.678" stroke="#AFE36B" stroke-width="5" stroke-linecap="round"/>
<path d="M854.489 563.327L859.363 569.528" stroke="#AFE36B" stroke-width="5" stroke-linecap="round"/>
<path d="M826.573 513.911L829.284 521.332" stroke="#AFE36B" stroke-width="5" stroke-linecap="round"/>
<path d="M739.26 520.229L745.06 525.562" stroke="#AFE36B" stroke-width="5" stroke-linecap="round"/>
<path d="M922.005 684.996L916.181 690.304" stroke="#AFE36B" stroke-width="5" stroke-linecap="round"/>
<path d="M860.597 620.235L855.523 614.198" stroke="#AFE36B" stroke-width="5" stroke-linecap="round"/>
<path d="M890.729 574.375L888.595 566.766" stroke="#AFE36B" stroke-width="5" stroke-linecap="round"/>
<path d="M914.15 626.102L909.764 619.542" stroke="#AFE36B" stroke-width="5" stroke-linecap="round"/>
<path d="M857.874 693.569L856.98 685.714" stroke="#AFE36B" stroke-width="5" stroke-linecap="round"/>
<path d="M918.832 548.224L914.231 554.632" stroke="#AFE36B" stroke-width="5" stroke-linecap="round"/>
<path d="M871.542 469.415L872.385 477.276" stroke="#AFE36B" stroke-width="5" stroke-linecap="round"/>
<path d="M867.34 529.837L860.515 533.754" stroke="#AFE36B" stroke-width="5" stroke-linecap="round"/>
<path d="M911.598 494.512L906.326 500.374" stroke="#AFE36B" stroke-width="5" stroke-linecap="round"/>
<path d="M973.764 548.375L966.402 551.139" stroke="#AFE36B" stroke-width="5" stroke-linecap="round"/>
<path d="M363.063 616.1L366.4 609.552" stroke="#AFE36B" stroke-width="5" stroke-linecap="round"/>
<path d="M440.055 649.206L446.654 652.522" stroke="#AFE36B" stroke-width="5" stroke-linecap="round"/>
<path d="M371.813 703.11L379.101 701.264" stroke="#AFE36B" stroke-width="5" stroke-linecap="round"/>
<path d="M429.162 698.658L433.694 704.342" stroke="#AFE36B" stroke-width="5" stroke-linecap="round"/>
<path d="M417.079 586.19L420.593 592.521" stroke="#AFE36B" stroke-width="5" stroke-linecap="round"/>
<path d="M413.248 730.715L415.117 723.667" stroke="#AFE36B" stroke-width="5" stroke-linecap="round"/>
<path d="M465.369 728.083L470.077 722.357" stroke="#AFE36B" stroke-width="5" stroke-linecap="round"/>
<path d="M530.913 616L525.403 611.192" stroke="#AFE36B" stroke-width="5" stroke-linecap="round"/>
<path d="M471.716 675.893L466.819 681.47" stroke="#AFE36B" stroke-width="5" stroke-linecap="round"/>
<path d="M554.888 700.015L547.448 701.066" stroke="#AFE36B" stroke-width="5" stroke-linecap="round"/>
<path d="M500.057 717.628L497.95 724.618" stroke="#AFE36B" stroke-width="5" stroke-linecap="round"/>
<path d="M522.88 670.026L518.635 676.076" stroke="#AFE36B" stroke-width="5" stroke-linecap="round"/>
<path d="M469.784 608.737L468.86 615.941" stroke="#AFE36B" stroke-width="5" stroke-linecap="round"/>
<path d="M1167.58 385.281C1183.23 394.213 1206.93 404.112 1176.45 372.256" stroke="#69BB58" stroke-width="7" stroke-linecap="round"/>
<path d="M1153.52 393.097C1163.76 402.276 1180.89 413.49 1167.58 384.909" stroke="#69BB58" stroke-width="7" stroke-linecap="round"/>
<path d="M1097.07 342.612C1110.9 336.565 1131.43 330.534 1102.93 354.778" stroke="#69BB58" stroke-width="7" stroke-linecap="round"/>
<path d="M1086.39 334.39C1095.79 327.557 1111.09 319.7 1097.03 342.932" stroke="#69BB58" stroke-width="7" stroke-linecap="round"/>
<path d="M1097.07 428.653C1110.9 422.607 1131.43 416.575 1102.93 440.819" stroke="#69BB58" stroke-width="7" stroke-linecap="round"/>
<path d="M1086.39 420.431C1095.79 413.598 1111.09 405.741 1097.03 428.974" stroke="#69BB58" stroke-width="7" stroke-linecap="round"/>
<path d="M1199.56 312.98C1209.46 296.309 1220.84 270.862 1187.23 302.438" stroke="#69BB58" stroke-width="7" stroke-linecap="round"/>
<path d="M1206.39 328.898C1216.17 318.205 1228.43 300.046 1199.2 312.957" stroke="#69BB58" stroke-width="7" stroke-linecap="round"/>
<path d="M1117.96 248.573C1114.69 268.589 1106.6 296.331 1100.42 247.176" stroke="#69BB58" stroke-width="7" stroke-linecap="round"/>
<path d="M1134.62 241.761C1135.38 257.197 1133.05 280.118 1117.64 248.311" stroke="#69BB58" stroke-width="7" stroke-linecap="round"/>
<path d="M1241.68 441.096C1224.9 452.341 1199.23 465.312 1230.74 427.238" stroke="#69BB58" stroke-width="7" stroke-linecap="round"/>
<path d="M1258 448.711C1247.3 459.799 1229.05 473.715 1241.65 440.679" stroke="#69BB58" stroke-width="7" stroke-linecap="round"/>
<path d="M1130.56 156.713C1115.59 164.574 1095.92 178.32 1136.99 170.42" stroke="#69BB58" stroke-width="7" stroke-linecap="round"/>
<path d="M1130.95 141.561C1118.41 144.989 1100.84 152.857 1130.87 156.904" stroke="#69BB58" stroke-width="7" stroke-linecap="round"/>
<path d="M1205.17 217.335C1190.19 225.195 1170.52 238.941 1211.59 231.041" stroke="#69BB58" stroke-width="7" stroke-linecap="round"/>
<path d="M1205.55 202.183C1193.01 205.611 1175.44 213.478 1205.47 217.525" stroke="#69BB58" stroke-width="7" stroke-linecap="round"/>
<path d="M1017.68 178.376C996.265 175.302 966.193 167.351 1017.22 160.137" stroke="#69BB58" stroke-width="7" stroke-linecap="round"/>
<path d="M1026.68 195.574C1010.53 196.614 986.162 194.561 1017.92 178.037" stroke="#69BB58" stroke-width="7" stroke-linecap="round"/>
<path d="M157.375 187.149C142.997 176.255 124.536 158.327 165.714 173.769" stroke="#69BB58" stroke-width="7" stroke-linecap="round"/>
<path d="M155.847 203.233C143.404 197.444 126.356 186.094 157.714 187.001" stroke="#69BB58" stroke-width="7" stroke-linecap="round"/>
<path d="M318.102 505.545C303.724 494.651 285.263 476.723 326.441 492.165" stroke="#69BB58" stroke-width="7" stroke-linecap="round"/>
<path d="M316.575 521.63C304.131 515.841 287.083 504.49 318.441 505.397" stroke="#69BB58" stroke-width="7" stroke-linecap="round"/>
<path d="M224.353 235.232C224.358 220.06 221.679 198.708 210.929 234.67" stroke="#69BB58" stroke-width="7" stroke-linecap="round"/>
<path d="M236.101 241.814C238.585 230.413 239.658 213.169 224.077 235.397" stroke="#69BB58" stroke-width="7" stroke-linecap="round"/>
<path d="M145.915 269.497C145.919 254.325 143.241 232.973 132.491 268.935" stroke="#69BB58" stroke-width="7" stroke-linecap="round"/>
<path d="M157.663 276.079C160.147 264.679 161.219 247.434 145.639 269.663" stroke="#69BB58" stroke-width="7" stroke-linecap="round"/>
<path d="M210.549 128.833C221.807 113.062 240.472 92.4213 225.072 136.02" stroke="#69BB58" stroke-width="7" stroke-linecap="round"/>
<path d="M193.319 128.873C199.172 115.586 210.845 97.0427 210.717 129.165" stroke="#69BB58" stroke-width="7" stroke-linecap="round"/>
<path d="M301.762 178.5C284.818 189.489 262.747 208 310.02 194.13" stroke="#69BB58" stroke-width="7" stroke-linecap="round"/>
<path d="M301.337 160.408C286.961 165.853 266.995 177.133 302.13 178.693" stroke="#69BB58" stroke-width="7" stroke-linecap="round"/>
<path d="M76.9802 140.98C73.4108 160.944 71.8123 189.81 93.973 145.564" stroke="#69BB58" stroke-width="7" stroke-linecap="round"/>
<path d="M63.5399 128.954C57.6933 143.246 52.2743 165.632 77.3715 140.841" stroke="#69BB58" stroke-width="7" stroke-linecap="round"/>
<path d="M89.369 -3.24254C101.813 -9.03126 118.86 -20.3819 87.5023 -19.4749" stroke="#69BB58" stroke-width="7" stroke-linecap="round"/>
<path d="M20.8629 28.7562C20.8583 13.5846 23.5367 -7.76802 34.2869 28.1942" stroke="#69BB58" stroke-width="7" stroke-linecap="round"/>
<path d="M9.11512 35.3386C6.6311 23.9378 5.55828 6.69331 21.1391 28.9218" stroke="#69BB58" stroke-width="7" stroke-linecap="round"/>
<path d="M99.3014 63.0214C99.2968 47.8498 101.975 26.4971 112.725 62.4594" stroke="#69BB58" stroke-width="7" stroke-linecap="round"/>
<path d="M87.5536 69.6036C85.0696 58.2028 83.9968 40.9583 99.5776 63.1868" stroke="#69BB58" stroke-width="7" stroke-linecap="round"/>
<path d="M380.487 130.286C379.282 147.234 374.586 170.866 365.432 129.812" stroke="#69BB58" stroke-width="7" stroke-linecap="round"/>
<path d="M394.147 123.897C396.016 136.836 395.841 156.187 380.191 130.078" stroke="#69BB58" stroke-width="7" stroke-linecap="round"/>
<path d="M295.512 85.5732C294.308 102.521 289.611 126.153 280.457 85.0994" stroke="#69BB58" stroke-width="7" stroke-linecap="round"/>
<path d="M309.173 79.1846C311.041 92.1236 310.866 111.475 295.217 85.3657" stroke="#69BB58" stroke-width="7" stroke-linecap="round"/>
<path d="M405.692 243.1C417.023 261.64 436.248 286.229 422.504 236.264" stroke="#69BB58" stroke-width="7" stroke-linecap="round"/>
<path d="M386.43 241.642C391.915 256.964 403.49 278.635 405.906 242.743" stroke="#69BB58" stroke-width="7" stroke-linecap="round"/>
<path d="M52.876 365.175C38.4982 376.069 20.0372 393.997 61.2153 378.555" stroke="#69BB58" stroke-width="7" stroke-linecap="round"/>
<path d="M51.3486 349.091C38.905 354.879 21.8572 366.23 53.2153 365.323" stroke="#69BB58" stroke-width="7" stroke-linecap="round"/>
<path d="M119.855 317.092C119.859 332.263 117.181 353.616 106.431 317.654" stroke="#69BB58" stroke-width="7" stroke-linecap="round"/>
<path d="M131.602 310.509C134.086 321.91 135.159 339.155 119.578 316.926" stroke="#69BB58" stroke-width="7" stroke-linecap="round"/>
<path d="M41.4162 282.827C41.4208 297.998 38.7424 319.351 27.9921 283.389" stroke="#69BB58" stroke-width="7" stroke-linecap="round"/>
<path d="M53.1639 276.244C55.648 287.645 56.7208 304.89 41.14 282.661" stroke="#69BB58" stroke-width="7" stroke-linecap="round"/>
<path d="M106.051 423.491C117.308 439.261 135.973 459.902 120.574 416.304" stroke="#69BB58" stroke-width="7" stroke-linecap="round"/>
<path d="M88.8203 423.451C94.6732 436.738 106.347 455.281 106.218 423.159" stroke="#69BB58" stroke-width="7" stroke-linecap="round"/>
<path d="M197.264 373.824C180.319 362.834 158.248 344.323 205.522 358.193" stroke="#69BB58" stroke-width="7" stroke-linecap="round"/>
<path d="M196.838 391.916C182.463 386.471 162.496 375.191 197.631 373.63" stroke="#69BB58" stroke-width="7" stroke-linecap="round"/>
<path d="M275.988 422.038C274.784 405.09 270.087 381.458 260.933 422.512" stroke="#69BB58" stroke-width="7" stroke-linecap="round"/>
<path d="M289.648 428.426C291.517 415.487 291.342 396.137 275.692 422.245" stroke="#69BB58" stroke-width="7" stroke-linecap="round"/>
<path d="M191.014 466.75C189.81 449.803 185.113 426.171 175.959 467.224" stroke="#69BB58" stroke-width="7" stroke-linecap="round"/>
<path d="M204.674 473.139C206.543 460.2 206.368 440.849 190.718 466.958" stroke="#69BB58" stroke-width="7" stroke-linecap="round"/>
<path d="M301.194 309.223C312.524 290.683 331.749 266.095 318.005 316.06" stroke="#69BB58" stroke-width="7" stroke-linecap="round"/>
<path d="M281.931 310.682C287.416 295.36 298.991 273.688 301.408 309.58" stroke="#69BB58" stroke-width="7" stroke-linecap="round"/>
<path d="M501.562 115.149C487.184 126.043 468.723 143.971 509.901 128.529" stroke="#69BB58" stroke-width="7" stroke-linecap="round"/>
<path d="M500.035 99.0649C487.591 104.854 470.543 116.204 501.901 115.297" stroke="#69BB58" stroke-width="7" stroke-linecap="round"/>
<path d="M568.541 67.066C568.545 82.2376 565.867 103.59 555.117 67.628" stroke="#69BB58" stroke-width="7" stroke-linecap="round"/>
<path d="M580.289 60.4838C582.773 71.8846 583.845 89.1291 568.265 66.9006" stroke="#69BB58" stroke-width="7" stroke-linecap="round"/>
<path d="M490.102 32.8009C490.107 47.9725 487.429 69.3251 476.678 33.3629" stroke="#69BB58" stroke-width="7" stroke-linecap="round"/>
<path d="M501.85 26.2186C504.334 37.6194 505.407 54.8639 489.826 32.6354" stroke="#69BB58" stroke-width="7" stroke-linecap="round"/>
<path d="M332.349 11.6791C331.145 28.6268 326.448 52.2587 317.294 11.2052" stroke="#69BB58" stroke-width="7" stroke-linecap="round"/>
<path d="M346.009 5.29045C347.878 18.2295 347.703 37.5803 332.053 11.4715" stroke="#69BB58" stroke-width="7" stroke-linecap="round"/>
<path d="M554.737 173.465C565.994 189.236 584.659 209.877 569.26 166.278" stroke="#69BB58" stroke-width="7" stroke-linecap="round"/>
<path d="M537.506 173.425C543.359 186.712 555.033 205.255 554.904 173.133" stroke="#69BB58" stroke-width="7" stroke-linecap="round"/>
<path d="M1251.33 108.856C1241.92 91.9034 1225.7 69.2673 1236.09 114.341" stroke="#69BB58" stroke-width="7" stroke-linecap="round"/>
<path d="M1268.44 110.86C1264.12 96.9912 1254.61 77.2366 1251.12 109.166" stroke="#69BB58" stroke-width="7" stroke-linecap="round"/>
<path d="M645.95 123.798C629.005 112.809 606.934 94.2976 654.208 108.168" stroke="#69BB58" stroke-width="7" stroke-linecap="round"/>
<path d="M645.524 141.89C631.149 136.445 611.182 125.165 646.318 123.605" stroke="#69BB58" stroke-width="7" stroke-linecap="round"/>
<path d="M724.674 172.012C723.47 155.065 718.773 131.433 709.619 172.486" stroke="#69BB58" stroke-width="7" stroke-linecap="round"/>
<path d="M738.334 178.401C740.203 165.462 740.028 146.111 724.378 172.22" stroke="#69BB58" stroke-width="7" stroke-linecap="round"/>
<path d="M639.7 216.725C638.496 199.777 633.799 176.145 624.645 217.199" stroke="#69BB58" stroke-width="7" stroke-linecap="round"/>
<path d="M653.36 223.113C655.229 210.174 655.054 190.823 639.404 216.932" stroke="#69BB58" stroke-width="7" stroke-linecap="round"/>
<path d="M749.88 59.1977C761.21 40.6577 780.435 16.069 766.692 66.0343" stroke="#69BB58" stroke-width="7" stroke-linecap="round"/>
<path d="M730.617 60.6563C736.103 45.3341 747.677 23.6627 750.094 59.5546" stroke="#69BB58" stroke-width="7" stroke-linecap="round"/>
<path d="M425.104 386.562C410.727 375.668 392.266 357.74 433.444 373.182" stroke="#69BB58" stroke-width="7" stroke-linecap="round"/>
<path d="M423.577 402.646C411.133 396.858 394.086 385.507 425.444 386.414" stroke="#69BB58" stroke-width="7" stroke-linecap="round"/>
<path d="M492.083 434.645C492.088 419.474 489.409 398.121 478.659 434.083" stroke="#69BB58" stroke-width="7" stroke-linecap="round"/>
<path d="M503.831 441.227C506.315 429.827 507.388 412.582 491.807 434.811" stroke="#69BB58" stroke-width="7" stroke-linecap="round"/>
<path d="M413.645 468.91C413.649 453.739 410.971 432.386 400.221 468.348" stroke="#69BB58" stroke-width="7" stroke-linecap="round"/>
<path d="M425.392 475.493C427.876 464.092 428.949 446.847 413.368 469.076" stroke="#69BB58" stroke-width="7" stroke-linecap="round"/>
<path d="M478.279 328.246C489.537 312.475 508.201 291.834 492.802 335.433" stroke="#69BB58" stroke-width="7" stroke-linecap="round"/>
<path d="M461.049 328.286C466.902 314.999 478.575 296.456 478.447 328.578" stroke="#69BB58" stroke-width="7" stroke-linecap="round"/>
<path d="M569.492 377.913C552.548 388.902 530.477 407.414 577.75 393.543" stroke="#69BB58" stroke-width="7" stroke-linecap="round"/>
<path d="M569.066 359.821C554.691 365.266 534.725 376.546 569.86 378.106" stroke="#69BB58" stroke-width="7" stroke-linecap="round"/>
<path d="M648.216 329.699C647.012 346.647 642.315 370.279 633.162 329.225" stroke="#69BB58" stroke-width="7" stroke-linecap="round"/>
<path d="M661.877 323.31C663.745 336.249 663.571 355.6 647.921 329.491" stroke="#69BB58" stroke-width="7" stroke-linecap="round"/>
<path d="M563.242 284.986C562.038 301.934 557.341 325.566 548.187 284.513" stroke="#69BB58" stroke-width="7" stroke-linecap="round"/>
<path d="M576.902 278.598C578.771 291.537 578.596 310.888 562.946 284.779" stroke="#69BB58" stroke-width="7" stroke-linecap="round"/>
<path d="M673.422 442.513C684.753 461.053 703.978 485.642 690.234 435.677" stroke="#69BB58" stroke-width="7" stroke-linecap="round"/>
<path d="M654.159 441.055C659.645 456.377 671.22 478.049 673.636 442.157" stroke="#69BB58" stroke-width="7" stroke-linecap="round"/>
<path d="M81.6259 651.267C81.6304 636.095 78.952 614.742 68.2018 650.705" stroke="#69BB58" stroke-width="7" stroke-linecap="round"/>
<path d="M93.3736 657.849C95.8576 646.448 96.9304 629.204 81.3496 651.432" stroke="#69BB58" stroke-width="7" stroke-linecap="round"/>
<path d="M20.2897 709.909C20.2943 694.738 17.6159 673.385 6.86565 709.347" stroke="#69BB58" stroke-width="7" stroke-linecap="round"/>
<path d="M32.0375 716.492C34.5215 705.091 35.5943 687.846 20.0135 710.075" stroke="#69BB58" stroke-width="7" stroke-linecap="round"/>
<path d="M67.8218 544.867C79.0792 529.097 97.7442 508.456 82.3447 552.054" stroke="#69BB58" stroke-width="7" stroke-linecap="round"/>
<path d="M50.5914 544.907C56.4444 531.62 68.118 513.077 67.9893 545.199" stroke="#69BB58" stroke-width="7" stroke-linecap="round"/>
<path d="M159.035 594.534C142.09 605.524 120.019 624.035 167.293 610.165" stroke="#69BB58" stroke-width="7" stroke-linecap="round"/>
<path d="M158.609 576.442C144.234 581.887 124.267 593.167 159.403 594.728" stroke="#69BB58" stroke-width="7" stroke-linecap="round"/>
<path d="M237.759 546.32C236.555 563.268 231.858 586.9 222.704 545.846" stroke="#69BB58" stroke-width="7" stroke-linecap="round"/>
<path d="M251.419 539.932C253.288 552.871 253.113 572.222 237.463 546.113" stroke="#69BB58" stroke-width="7" stroke-linecap="round"/>
<path d="M152.785 501.608C151.581 518.556 146.884 542.188 137.73 501.134" stroke="#69BB58" stroke-width="7" stroke-linecap="round"/>
<path d="M166.445 495.219C168.314 508.158 168.139 527.509 152.489 501.4" stroke="#69BB58" stroke-width="7" stroke-linecap="round"/>
<path d="M262.965 659.135C274.295 677.675 293.52 702.263 279.777 652.298" stroke="#69BB58" stroke-width="7" stroke-linecap="round"/>
<path d="M243.702 657.676C249.188 672.998 260.762 694.67 263.179 658.778" stroke="#69BB58" stroke-width="7" stroke-linecap="round"/>
<path d="M959.303 597.11C944.925 586.216 926.464 568.288 967.642 583.73" stroke="#69BB58" stroke-width="7" stroke-linecap="round"/>
<path d="M957.775 613.194C945.332 607.405 928.284 596.055 959.642 596.962" stroke="#69BB58" stroke-width="7" stroke-linecap="round"/>
<path d="M1026.28 645.193C1026.29 630.022 1023.61 608.669 1012.86 644.631" stroke="#69BB58" stroke-width="7" stroke-linecap="round"/>
<path d="M1038.03 651.775C1040.51 640.375 1041.59 623.13 1026 645.359" stroke="#69BB58" stroke-width="7" stroke-linecap="round"/>
<path d="M947.843 679.458C947.847 664.287 945.169 642.934 934.419 678.896" stroke="#69BB58" stroke-width="7" stroke-linecap="round"/>
<path d="M959.59 686.04C962.075 674.639 963.147 657.395 947.567 679.623" stroke="#69BB58" stroke-width="7" stroke-linecap="round"/>
<path d="M1012.48 538.794C1023.73 523.023 1042.4 502.382 1027 545.981" stroke="#69BB58" stroke-width="7" stroke-linecap="round"/>
<path d="M995.247 538.834C1001.1 525.547 1012.77 507.004 1012.64 539.125" stroke="#69BB58" stroke-width="7" stroke-linecap="round"/>
<path d="M1103.69 588.461C1086.75 599.45 1064.67 617.962 1111.95 604.091" stroke="#69BB58" stroke-width="7" stroke-linecap="round"/>
<path d="M1103.26 570.369C1088.89 575.814 1068.92 587.094 1104.06 588.654" stroke="#69BB58" stroke-width="7" stroke-linecap="round"/>
<path d="M1182.41 540.247C1181.21 557.194 1176.51 580.826 1167.36 539.773" stroke="#69BB58" stroke-width="7" stroke-linecap="round"/>
<path d="M1196.07 533.858C1197.94 546.797 1197.77 566.148 1182.12 540.039" stroke="#69BB58" stroke-width="7" stroke-linecap="round"/>
<path d="M1097.44 495.534C1096.24 512.482 1091.54 536.114 1082.39 495.06" stroke="#69BB58" stroke-width="7" stroke-linecap="round"/>
<path d="M1111.1 489.146C1112.97 502.085 1112.79 521.436 1097.14 495.327" stroke="#69BB58" stroke-width="7" stroke-linecap="round"/>
<path d="M1207.62 653.061C1218.95 671.601 1238.18 696.19 1224.43 646.225" stroke="#69BB58" stroke-width="7" stroke-linecap="round"/>
<path d="M1188.36 651.603C1193.84 666.925 1205.42 688.596 1207.83 652.704" stroke="#69BB58" stroke-width="7" stroke-linecap="round"/>
<path d="M831.664 180.44C817.969 168.689 796.563 154.458 820.498 191.54" stroke="#69BB58" stroke-width="7" stroke-linecap="round"/>
<path d="M846.935 175.442C838.613 164.48 823.894 150.206 831.594 180.806" stroke="#69BB58" stroke-width="7" stroke-linecap="round"/>
<path d="M892.874 235.763C878.158 239.067 856.862 241.081 889.41 222.702" stroke="#69BB58" stroke-width="7" stroke-linecap="round"/>
<path d="M901.814 245.869C891.295 250.788 874.8 255.592 892.975 235.456" stroke="#69BB58" stroke-width="7" stroke-linecap="round"/>
<path d="M909.054 151.276C894.338 154.58 873.042 156.593 905.59 138.214" stroke="#69BB58" stroke-width="7" stroke-linecap="round"/>
<path d="M917.994 161.382C907.475 166.301 890.98 171.105 909.155 150.969" stroke="#69BB58" stroke-width="7" stroke-linecap="round"/>
<path d="M786.659 245.346C773.809 259.832 757.845 282.652 796.789 258.046" stroke="#69BB58" stroke-width="7" stroke-linecap="round"/>
<path d="M782.95 228.416C771.334 237.054 755.885 252.551 787.017 245.439" stroke="#69BB58" stroke-width="7" stroke-linecap="round"/>
<path d="M854.676 324.125C861.651 305.094 874.808 279.392 871.635 328.836" stroke="#69BB58" stroke-width="7" stroke-linecap="round"/>
<path d="M837.033 327.642C839.189 312.34 845.789 290.277 854.944 324.445" stroke="#69BB58" stroke-width="7" stroke-linecap="round"/>
<path d="M825.027 411.927C841.205 407.058 863.108 397.306 821.293 397.244" stroke="#69BB58" stroke-width="7" stroke-linecap="round"/>
<path d="M821.801 426.732C834.759 425.753 853.492 421.373 824.762 411.681" stroke="#69BB58" stroke-width="7" stroke-linecap="round"/>
<path d="M763.173 338.197C779.351 333.329 801.254 323.576 759.439 323.515" stroke="#69BB58" stroke-width="7" stroke-linecap="round"/>
<path d="M759.946 353.003C772.904 352.024 791.638 347.644 762.907 337.952" stroke="#69BB58" stroke-width="7" stroke-linecap="round"/>
<path d="M869.771 530.138C854.804 528.301 834.064 523.034 870.846 516.662" stroke="#69BB58" stroke-width="7" stroke-linecap="round"/>
<path d="M874.839 542.67C863.29 543.767 846.148 542.745 869.968 529.882" stroke="#69BB58" stroke-width="7" stroke-linecap="round"/>
<path d="M766.483 503.438C749.56 512.767 726.932 528.903 771.811 518.815" stroke="#69BB58" stroke-width="7" stroke-linecap="round"/>
<path d="M768.614 486.233C754.796 490.466 735.087 499.875 766.79 503.645" stroke="#69BB58" stroke-width="7" stroke-linecap="round"/>
<path d="M804.409 600.565C817.307 584.975 838.247 565.179 818.826 610.71" stroke="#69BB58" stroke-width="7" stroke-linecap="round"/>
<path d="M786.613 597.944C793.729 584.247 807.281 565.675 804.555 600.956" stroke="#69BB58" stroke-width="7" stroke-linecap="round"/>
<path d="M747.291 673.339C764.156 674.193 788.039 672.37 748.651 658.245" stroke="#69BB58" stroke-width="7" stroke-linecap="round"/>
<path d="M739.331 686.207C751.869 689.644 770.979 691.818 747.123 673.018" stroke="#69BB58" stroke-width="7" stroke-linecap="round"/>
<path d="M713.496 583.044C730.361 583.898 754.244 582.076 714.856 567.951" stroke="#69BB58" stroke-width="7" stroke-linecap="round"/>
<path d="M705.535 595.912C718.073 599.349 737.184 601.523 713.327 582.724" stroke="#69BB58" stroke-width="7" stroke-linecap="round"/>
<path d="M587.482 659.551C579.487 644.605 570.772 622.078 599.87 651.534" stroke="#69BB58" stroke-width="7" stroke-linecap="round"/>
<path d="M579.848 672.567C571.497 662.715 561.401 646.322 587.83 659.56" stroke="#69BB58" stroke-width="7" stroke-linecap="round"/>
<path d="M544.489 547.046C525.546 537.767 497.038 527.807 534.551 562.201" stroke="#69BB58" stroke-width="7" stroke-linecap="round"/>
<path d="M560.791 537.505C548.263 527.668 527.466 515.889 544.505 547.466" stroke="#69BB58" stroke-width="7" stroke-linecap="round"/>
<path d="M484.459 646.692C506.258 648.099 536.862 654.066 484.888 666.683" stroke="#69BB58" stroke-width="7" stroke-linecap="round"/>
<path d="M475.333 628.63C491.784 626.003 516.591 626.016 484.213 647.087" stroke="#69BB58" stroke-width="7" stroke-linecap="round"/>
<path d="M384.68 642.958C394.743 658.986 411.627 679.659 398.655 634.121" stroke="#69BB58" stroke-width="7" stroke-linecap="round"/>
<path d="M368.407 644.258C373.456 658.046 383.813 677.014 384.85 642.589" stroke="#69BB58" stroke-width="7" stroke-linecap="round"/>
<path d="M441.424 551.661C451.487 567.689 468.371 588.362 455.399 542.824" stroke="#69BB58" stroke-width="7" stroke-linecap="round"/>
<path d="M425.151 552.962C430.2 566.749 440.557 585.717 441.594 551.292" stroke="#69BB58" stroke-width="7" stroke-linecap="round"/>
<path d="M939.946 412.146C960.395 419.241 988.429 432.775 936.97 430.143" stroke="#69BB58" stroke-width="7" stroke-linecap="round"/>
<path d="M934.341 393.545C950.398 395.6 973.938 402.254 939.646 412.433" stroke="#69BB58" stroke-width="7" stroke-linecap="round"/>
<path d="M1014.81 258.016C1007.1 273.347 993.559 293.954 1001.14 253.737" stroke="#69BB58" stroke-width="7" stroke-linecap="round"/>
<path d="M1029.88 255.607C1026.55 268.023 1018.84 285.833 1014.62 257.749" stroke="#69BB58" stroke-width="7" stroke-linecap="round"/>
<path d="M1188.67 30.2324C1210.47 31.6389 1241.08 37.6062 1189.1 50.2235" stroke="#69BB58" stroke-width="7" stroke-linecap="round"/>
<path d="M1179.55 12.1703C1196 9.54284 1220.81 9.55579 1188.43 30.6272" stroke="#69BB58" stroke-width="7" stroke-linecap="round"/>
<path d="M1088.9 26.4979C1098.96 42.5262 1115.84 63.1984 1102.87 17.6609" stroke="#69BB58" stroke-width="7" stroke-linecap="round"/>
<path d="M1072.62 27.7983C1077.67 41.5855 1088.03 60.5538 1089.07 26.1291" stroke="#69BB58" stroke-width="7" stroke-linecap="round"/>
<path d="M930.103 55.8551C935.163 63.5565 937.01 80.9546 903.915 88.9357C902.133 74.9768 904.876 48.8182 930.103 55.8551Z" fill="#39C54D" stroke="#0E6E3A" stroke-width="3" stroke-linecap="round"/>
<path d="M933.088 53.5166C941.639 50.1687 958.93 52.0315 959.683 86.2661C945.747 85.0667 920.918 76.8376 933.088 53.5166Z" fill="#39C54D" stroke="#0E6E3A" stroke-width="3" stroke-linecap="round"/>
<path d="M936.18 54.2646C928.91 61.2219 909.335 71.6972 889.199 57.9404C904.805 49.3716 936.051 36.6402 936.18 54.2646Z" fill="#39C54D" stroke="#0E6E3A" stroke-width="3" stroke-linecap="round"/>
<path d="M929.841 46.1971C937.8 42.0552 956.824 39.1084 969.242 60.4568C954.011 63.0218 924.809 63.7608 929.841 46.1971Z" fill="#39C54D" stroke="#0E6E3A" stroke-width="3" stroke-linecap="round"/>
<path d="M916.528 58.7765C918.351 61.9571 922.145 67.2174 930.023 67.2174C933.974 66.8504 940.345 65.5292 942.242 58.7765C942.442 58.0651 942.559 57.3927 942.602 56.758C943.077 49.8615 934.912 47.3995 930.57 47.3995C929.897 47.3593 929.158 47.341 928.382 47.3643C923.264 47.5176 916.528 49.472 916.528 58.7765Z" fill="#F4FF28"/>
<path d="M930.023 67.2174C922.145 67.2174 918.351 61.9571 916.528 58.7765C916.528 58.7765 912.11 59.7053 909.415 62.63C906.479 65.8162 905.749 71.1558 909.415 74.7409C914.878 80.0819 919.764 79.9811 923.822 76.5759C927.313 73.6475 930.427 67.7107 930.023 67.2174Z" fill="#EAEAEA"/>
<path d="M942.242 58.7765C940.345 65.5292 933.974 66.8504 930.023 67.2174C933.488 71.7437 942.132 79.4385 948.99 74.0069C957.561 67.2174 948.434 56.9415 942.602 56.758C942.559 57.3927 942.442 58.0651 942.242 58.7765Z" fill="#E5E5E5"/>
<path d="M916.528 58.7765C916.528 49.472 923.264 47.5176 928.382 47.3643C926.923 41.6264 921.598 31.4351 911.968 36.5731C899.932 42.9956 906.497 56.024 916.528 58.7765Z" fill="#E5E5E3"/>
<path d="M930.57 47.3995C934.912 47.3995 943.077 49.8615 942.602 56.758C944.589 55.0147 947.209 53.2487 948.99 50.519C952.332 45.3953 953.385 38.7285 946.436 35.4721C933.123 29.2331 928.746 47.3504 928.382 47.3643C929.158 47.341 929.897 47.3593 930.57 47.3995Z" fill="#EEEEEE"/>
<path d="M916.528 58.7765C918.351 61.9571 922.145 67.2174 930.023 67.2174M916.528 58.7765C916.528 58.7765 912.11 59.7053 909.415 62.63C906.479 65.8162 905.749 71.1558 909.415 74.7409C914.878 80.0819 919.764 79.9811 923.822 76.5759C927.313 73.6475 930.427 67.7107 930.023 67.2174M916.528 58.7765C916.528 49.472 923.264 47.5176 928.382 47.3643M916.528 58.7765C906.497 56.024 899.932 42.9956 911.968 36.5731C921.598 31.4351 926.923 41.6264 928.382 47.3643M930.023 67.2174C933.974 66.8504 940.345 65.5292 942.242 58.7765C942.442 58.0651 942.559 57.3927 942.602 56.758M930.023 67.2174C933.488 71.7437 942.132 79.4385 948.99 74.0069C957.561 67.2174 948.434 56.9415 942.602 56.758M942.602 56.758C943.077 49.8615 934.912 47.3995 930.57 47.3995C929.897 47.3593 929.158 47.341 928.382 47.3643M942.602 56.758C944.589 55.0147 947.209 53.2487 948.99 50.519C952.332 45.3953 953.385 38.7285 946.436 35.4721C933.123 29.2331 928.746 47.3504 928.382 47.3643" stroke="#445764" stroke-width="3" stroke-linecap="round"/>
<path d="M1115.21 663.639C1119.9 670.776 1121.61 686.898 1090.94 694.294C1089.29 681.359 1091.83 657.118 1115.21 663.639Z" fill="#39C54D" stroke="#0E6E3A" stroke-width="3" stroke-linecap="round"/>
<path d="M1117.98 661.472C1125.9 658.369 1141.92 660.096 1142.62 691.82C1129.71 690.709 1106.7 683.083 1117.98 661.472Z" fill="#39C54D" stroke="#0E6E3A" stroke-width="3" stroke-linecap="round"/>
<path d="M1120.84 662.165C1114.11 668.612 1095.97 678.32 1077.31 665.572C1091.77 657.631 1120.72 645.833 1120.84 662.165Z" fill="#39C54D" stroke="#0E6E3A" stroke-width="3" stroke-linecap="round"/>
<path d="M1114.97 654.689C1122.34 650.851 1139.97 648.12 1151.48 667.903C1137.37 670.28 1110.31 670.965 1114.97 654.689Z" fill="#39C54D" stroke="#0E6E3A" stroke-width="3" stroke-linecap="round"/>
<path d="M1102.63 666.346C1104.32 669.294 1107.84 674.168 1115.14 674.168C1118.8 673.828 1124.7 672.604 1126.46 666.346C1126.65 665.687 1126.75 665.064 1126.79 664.476C1127.23 658.085 1119.67 655.803 1115.64 655.803C1115.02 655.766 1114.34 655.749 1113.62 655.771C1108.87 655.913 1102.63 657.724 1102.63 666.346Z" fill="#F4FF28"/>
<path d="M1115.14 674.168C1107.84 674.168 1104.32 669.294 1102.63 666.346C1102.63 666.346 1098.54 667.207 1096.04 669.917C1093.32 672.87 1092.64 677.818 1096.04 681.14C1101.1 686.089 1105.63 685.996 1109.39 682.841C1112.63 680.127 1115.51 674.625 1115.14 674.168Z" fill="#EAEAEA"/>
<path d="M1126.46 666.346C1124.7 672.604 1118.8 673.828 1115.14 674.168C1118.35 678.363 1126.36 685.493 1132.71 680.46C1140.66 674.168 1132.2 664.646 1126.79 664.476C1126.75 665.064 1126.65 665.687 1126.46 666.346Z" fill="#E5E5E5"/>
<path d="M1102.63 666.346C1102.63 657.724 1108.87 655.913 1113.62 655.771C1112.26 650.454 1107.33 641.01 1098.41 645.771C1087.25 651.722 1093.34 663.796 1102.63 666.346Z" fill="#E5E5E3"/>
<path d="M1115.64 655.803C1119.67 655.803 1127.23 658.085 1126.79 664.476C1128.63 662.86 1131.06 661.224 1132.71 658.694C1135.81 653.946 1136.79 647.768 1130.35 644.751C1118.01 638.969 1113.95 655.758 1113.62 655.771C1114.34 655.749 1115.02 655.766 1115.64 655.803Z" fill="#EEEEEE"/>
<path d="M1102.63 666.346C1104.32 669.294 1107.84 674.168 1115.14 674.168M1102.63 666.346C1102.63 666.346 1098.54 667.207 1096.04 669.917C1093.32 672.87 1092.64 677.818 1096.04 681.14C1101.1 686.089 1105.63 685.996 1109.39 682.841C1112.63 680.127 1115.51 674.625 1115.14 674.168M1102.63 666.346C1102.63 657.724 1108.87 655.913 1113.62 655.771M1102.63 666.346C1093.34 663.796 1087.25 651.722 1098.41 645.771C1107.33 641.01 1112.26 650.454 1113.62 655.771M1115.14 674.168C1118.8 673.828 1124.7 672.604 1126.46 666.346C1126.65 665.687 1126.75 665.064 1126.79 664.476M1115.14 674.168C1118.35 678.363 1126.36 685.493 1132.71 680.46C1140.66 674.168 1132.2 664.646 1126.79 664.476M1126.79 664.476C1127.23 658.085 1119.67 655.803 1115.64 655.803C1115.02 655.766 1114.34 655.749 1113.62 655.771M1126.79 664.476C1128.63 662.86 1131.06 661.224 1132.71 658.694C1135.81 653.946 1136.79 647.768 1130.35 644.751C1118.01 638.969 1113.95 655.758 1113.62 655.771" stroke="#445764" stroke-width="3" stroke-linecap="round"/>
<path d="M1201.22 603.89C1207.09 612.815 1209.23 632.976 1170.88 642.225C1168.81 626.049 1171.99 595.736 1201.22 603.89Z" fill="#39C54D" stroke="#0E6E3A" stroke-width="3" stroke-linecap="round"/>
<path d="M1204.68 601.18C1214.59 597.301 1234.63 599.459 1235.5 639.131C1219.35 637.741 1190.58 628.205 1204.68 601.18Z" fill="#39C54D" stroke="#0E6E3A" stroke-width="3" stroke-linecap="round"/>
<path d="M1208.27 602.047C1199.84 610.109 1177.16 622.249 1153.82 606.307C1171.91 596.377 1208.12 581.624 1208.27 602.047Z" fill="#39C54D" stroke="#0E6E3A" stroke-width="3" stroke-linecap="round"/>
<path d="M1200.92 592.698C1210.14 587.898 1232.19 584.484 1246.58 609.223C1228.93 612.195 1195.09 613.051 1200.92 592.698Z" fill="#39C54D" stroke="#0E6E3A" stroke-width="3" stroke-linecap="round"/>
<path d="M1185.49 607.276C1187.61 610.961 1192 617.057 1201.13 617.057C1205.71 616.632 1213.09 615.101 1215.29 607.276C1215.52 606.451 1215.66 605.672 1215.71 604.937C1216.26 596.945 1206.8 594.092 1201.77 594.092C1200.99 594.045 1200.13 594.024 1199.23 594.051C1193.3 594.229 1185.49 596.493 1185.49 607.276Z" fill="#F4FF28"/>
<path d="M1201.13 617.057C1192 617.057 1187.61 610.961 1185.49 607.276C1185.49 607.276 1180.37 608.352 1177.25 611.741C1173.85 615.433 1173 621.621 1177.25 625.776C1183.58 631.965 1189.24 631.848 1193.95 627.902C1197.99 624.509 1201.6 617.629 1201.13 617.057Z" fill="#EAEAEA"/>
<path d="M1215.29 607.276C1213.09 615.101 1205.71 616.632 1201.13 617.057C1205.15 622.302 1215.16 631.219 1223.11 624.925C1233.04 617.057 1222.47 605.149 1215.71 604.937C1215.66 605.672 1215.52 606.451 1215.29 607.276Z" fill="#E5E5E5"/>
<path d="M1185.49 607.276C1185.49 596.493 1193.3 594.229 1199.23 594.051C1197.54 587.402 1191.37 575.592 1180.21 581.546C1166.26 588.988 1173.87 604.086 1185.49 607.276Z" fill="#E5E5E3"/>
<path d="M1201.77 594.092C1206.8 594.092 1216.26 596.945 1215.71 604.937C1218.01 602.916 1221.05 600.87 1223.11 597.707C1226.98 591.769 1228.2 584.044 1220.15 580.27C1204.72 573.04 1199.65 594.035 1199.23 594.051C1200.13 594.024 1200.99 594.045 1201.77 594.092Z" fill="#EEEEEE"/>
<path d="M1185.49 607.276C1187.61 610.961 1192 617.057 1201.13 617.057M1185.49 607.276C1185.49 607.276 1180.37 608.352 1177.25 611.741C1173.85 615.433 1173 621.621 1177.25 625.776C1183.58 631.965 1189.24 631.848 1193.95 627.902C1197.99 624.509 1201.6 617.629 1201.13 617.057M1185.49 607.276C1185.49 596.493 1193.3 594.229 1199.23 594.051M1185.49 607.276C1173.87 604.086 1166.26 588.988 1180.21 581.546C1191.37 575.592 1197.54 587.402 1199.23 594.051M1201.13 617.057C1205.71 616.632 1213.09 615.101 1215.29 607.276C1215.52 606.451 1215.66 605.672 1215.71 604.937M1201.13 617.057C1205.15 622.302 1215.16 631.219 1223.11 624.925C1233.04 617.057 1222.47 605.149 1215.71 604.937M1215.71 604.937C1216.26 596.945 1206.8 594.092 1201.77 594.092C1200.99 594.045 1200.13 594.024 1199.23 594.051M1215.71 604.937C1218.01 602.916 1221.05 600.87 1223.11 597.707C1226.98 591.769 1228.2 584.044 1220.15 580.27C1204.72 573.04 1199.65 594.035 1199.23 594.051" stroke="#445764" stroke-width="3" stroke-linecap="round"/>
<path d="M56.0992 597.042C54.6117 589.409 55.3406 573.694 64.801 573.694C76.6265 573.694 77.9653 582.45 77.9653 597.042C79.899 591.579 85.5515 581.237 92.6914 583.572C101.616 586.491 96.7076 600.634 92.6914 605.798C97.1539 600.934 107.373 594.124 112.549 605.798C117.058 615.966 111.174 621.536 106.337 623.694C111.13 622.288 118.951 622.025 123.259 629.146C128.257 637.408 118.202 642.916 112.549 644.637C116.64 646.882 123.884 653.348 120.136 661.251C116.387 669.153 108.013 666.639 104.294 664.394C107.343 668.061 112.014 676.966 106.302 683.252C100.59 689.538 94.8483 683.776 92.6914 680.109C94.1045 686.47 94.2533 698.384 83.5433 695.151C76.4369 693.006 74.1769 689.622 73.8951 686.822C72.7072 690.717 70.0053 695.151 64.801 695.151C57.8396 695.151 56.0992 687.218 56.0992 683.252C54.6861 686.994 50.0302 693.669 42.7118 690.436C35.3933 687.203 37.5799 679.81 39.5881 676.517C36.4643 678.912 29.2351 682.983 25.3082 680.109C21.8658 677.59 21.2764 670.875 23.3091 667.088C22.4439 667.208 21.5286 667.227 20.6226 667.088C15.323 666.274 10.5008 660.823 20.6226 651.597C17.127 649.801 10.7605 644.772 13.2595 639.025C16.3832 631.84 19.0607 629.146 29.3244 629.146C25.0464 628.082 19.9438 627.321 17.7219 622.86C16.5059 620.419 14.7545 615.925 17.7219 611.86C25.4961 601.208 32.7209 605.606 35.1001 610.656C32.6997 604.256 29.8266 592.384 34.6793 587.838C39.8558 582.988 51.1161 591.954 56.0992 597.042Z" fill="#34A727"/>
<path d="M81.7583 641.27C83.9152 646.882 89.8354 656.311 96.2614 649.127C102.687 641.943 95.8151 635.358 91.5758 632.963M56.0992 651.597C56.3967 657.359 55.162 668.524 47.8436 667.088C40.5251 665.651 43.158 656.162 45.3892 651.597C42.0424 655.563 34.5454 661.7 31.3325 654.515C28.1195 647.331 36.9849 639.848 41.8193 637.004M56.0992 597.042C54.6117 589.409 55.3406 573.694 64.801 573.694C76.6265 573.694 77.9653 582.45 77.9653 597.042C79.899 591.579 85.5514 581.237 92.6914 583.572C101.616 586.491 96.7076 600.634 92.6914 605.798C97.1539 600.934 107.373 594.124 112.549 605.798C117.726 617.472 109.203 623.085 104.294 624.432C108.533 622.561 118.261 620.885 123.259 629.146C128.257 637.408 118.202 642.916 112.549 644.637C116.64 646.882 123.884 653.348 120.136 661.251C116.387 669.153 108.013 666.639 104.294 664.394C107.343 668.061 112.014 676.966 106.302 683.252C100.59 689.538 94.8483 683.776 92.6914 680.109C94.1045 686.47 94.2533 698.384 83.5433 695.151C72.8334 691.918 73.1309 685.871 74.6184 683.252C74.2465 687.218 71.7624 695.151 64.801 695.151C57.8395 695.151 56.0992 687.218 56.0992 683.252C54.6861 686.994 50.0302 693.669 42.7118 690.436C35.3933 687.203 37.5799 679.81 39.5881 676.517C36.4643 678.912 29.2351 682.983 25.3082 680.109C20.3995 676.517 21.2919 664.394 27.3163 664.394C30.1255 664.394 25.253 667.798 20.6226 667.088C15.323 666.274 10.5008 660.823 20.6226 651.597C17.127 649.801 10.7605 644.772 13.2595 639.025C16.3832 631.84 19.0607 629.146 29.3244 629.146C25.0464 628.082 19.9438 627.321 17.7219 622.86C16.5059 620.419 14.7545 615.925 17.7219 611.86C26.1114 600.365 33.8612 606.397 35.5718 611.86C33.1175 605.873 29.5029 592.687 34.6793 587.838C39.8558 582.988 51.1161 591.954 56.0992 597.042Z" stroke="#156E41" stroke-width="4" stroke-linecap="round"/>
<path d="M58.3065 605.099C57.061 598.722 57.6712 585.593 65.5927 585.593C75.4944 585.593 76.6154 592.907 76.6154 605.099C78.2345 600.535 82.9674 591.894 88.9459 593.845C96.4189 596.283 92.3087 608.099 88.9459 612.413C92.6824 608.35 101.239 602.66 105.573 612.413C109.348 620.908 104.422 625.561 100.372 627.364C104.385 626.189 110.934 625.97 114.541 631.919C118.726 638.822 110.306 643.423 105.573 644.861C108.998 646.736 115.064 652.138 111.925 658.74C108.787 665.342 101.775 663.242 98.6608 661.366C101.214 664.429 105.125 671.869 100.342 677.121C95.5595 682.372 90.7518 677.558 88.9459 674.495C90.1291 679.809 90.2536 689.762 81.286 687.061C75.3357 685.269 73.4433 682.442 73.2073 680.103C72.2127 683.358 69.9503 687.061 65.5927 687.061C59.7637 687.061 58.3065 680.434 58.3065 677.121C57.1232 680.247 53.2248 685.824 47.0969 683.123C40.969 680.422 42.7999 674.245 44.4814 671.494C41.8658 673.495 35.8127 676.896 32.5245 674.495C29.6421 672.391 29.1486 666.781 30.8507 663.617C30.1262 663.717 29.3598 663.733 28.6012 663.617C24.1637 662.937 20.126 658.383 28.6012 650.675C25.6742 649.175 20.3435 644.973 22.4359 640.172C25.0515 634.17 27.2934 631.919 35.8874 631.919C32.3053 631.03 28.0328 630.395 26.1724 626.668C25.1542 624.628 23.6877 620.874 26.1724 617.477C32.6818 608.579 38.7314 612.253 40.7235 616.471C38.7136 611.125 36.3079 601.207 40.3712 597.409C44.7055 593.357 54.134 600.847 58.3065 605.099Z" fill="#59CB4C"/>
<path d="M79.7914 642.047C81.5974 646.736 86.5545 654.614 91.9351 648.612C97.3156 642.61 91.5614 637.108 88.0117 635.108M58.3065 650.675C58.5556 655.489 57.5218 664.817 51.3939 663.617C45.266 662.416 47.4705 654.489 49.3388 650.675C46.5364 653.989 40.2591 659.115 37.5688 653.113C34.8785 647.112 42.3017 640.86 46.3496 638.484M58.3065 605.099C57.061 598.722 57.6712 585.593 65.5927 585.593C75.4944 585.593 76.6154 592.907 76.6154 605.099C78.2345 600.535 82.9674 591.894 88.9459 593.845C96.4189 596.283 92.3087 608.099 88.9459 612.413C92.6824 608.35 101.239 602.66 105.573 612.413C109.908 622.166 102.771 626.855 98.6608 627.981C102.21 626.418 110.356 625.017 114.541 631.919C118.726 638.822 110.306 643.423 105.573 644.861C108.998 646.736 115.064 652.138 111.925 658.74C108.787 665.342 101.775 663.242 98.6608 661.366C101.214 664.429 105.125 671.869 100.342 677.121C95.5595 682.372 90.7518 677.558 88.9459 674.495C90.1291 679.809 90.2536 689.762 81.286 687.061C72.3184 684.361 72.5675 679.309 73.813 677.121C73.5016 680.434 71.4216 687.061 65.5927 687.061C59.7637 687.061 58.3065 680.434 58.3065 677.121C57.1232 680.247 53.2248 685.824 47.0969 683.123C40.969 680.422 42.7999 674.245 44.4814 671.494C41.8658 673.495 35.8127 676.896 32.5245 674.495C28.4144 671.494 29.1617 661.366 34.206 661.366C36.5581 661.366 32.4783 664.21 28.6012 663.617C24.1637 662.937 20.126 658.383 28.6012 650.675C25.6742 649.175 20.3435 644.973 22.4359 640.172C25.0515 634.17 27.2934 631.919 35.8874 631.919C32.3053 631.03 28.0328 630.395 26.1724 626.668C25.1542 624.628 23.6877 620.874 26.1724 617.477C33.1971 607.874 39.6861 612.913 41.1185 617.477C39.0634 612.476 36.0368 601.46 40.3712 597.409C44.7055 593.357 54.134 600.847 58.3065 605.099Z" stroke="#156E41" stroke-width="4" stroke-linecap="round"/>
<path d="M102.557 632.392C103.847 632.392 104.904 633.446 104.904 634.759C104.904 636.073 103.848 637.127 102.557 637.127C101.267 637.127 100.211 636.073 100.211 634.759C100.211 633.446 101.267 632.392 102.557 632.392Z" fill="#FF0404" stroke="#760303" stroke-width="2"/>
<path d="M67.2551 605.451C68.5453 605.451 69.6016 606.505 69.6018 607.818C69.6018 609.132 68.5455 610.187 67.2551 610.187C65.9649 610.186 64.9085 609.132 64.9085 607.818C64.9087 606.505 65.965 605.451 67.2551 605.451Z" fill="#FF0404" stroke="#760303" stroke-width="2"/>
<circle cx="51.9275" cy="629.367" r="4.04566" fill="#FF0404" stroke="#760303" stroke-width="2"/>
<circle cx="42.8733" cy="663.784" r="4.04566" fill="#FF0404" stroke="#760303" stroke-width="2"/>
<path d="M69.3585 643.527C70.6487 643.527 71.705 644.581 71.7052 645.894C71.7052 647.207 70.6488 648.262 69.3585 648.262C68.0683 648.262 67.0118 647.207 67.0118 645.894C67.012 644.581 68.0684 643.527 69.3585 643.527Z" fill="#FF0404" stroke="#760303" stroke-width="2"/>
<circle cx="83.1142" cy="626.331" r="4.04566" fill="#FF0404" stroke="#760303" stroke-width="2"/>
<path d="M79.0903 662.76C81.3102 662.76 83.1206 664.572 83.1206 666.821C83.1204 669.07 81.3101 670.882 79.0903 670.882C76.8704 670.882 75.0602 669.07 75.06 666.821C75.06 664.572 76.8703 662.76 79.0903 662.76Z" fill="#FF0404" stroke="#760303" stroke-width="2"/>
<circle cx="102.229" cy="653.661" r="4.04566" fill="#FF0404" stroke="#760303" stroke-width="2"/>
<path d="M125.205 635.532C124.039 629.546 124.61 617.221 132.03 617.221C141.304 617.221 142.354 624.088 142.354 635.532C143.871 631.248 148.304 623.137 153.904 624.968C160.903 627.257 157.054 638.35 153.904 642.399C157.404 638.584 165.418 633.243 169.478 642.399C173.014 650.374 168.399 654.742 164.606 656.434C168.365 655.332 174.499 655.126 177.878 660.711C181.797 667.191 173.911 671.51 169.478 672.86C172.686 674.621 178.368 679.692 175.428 685.89C172.488 692.087 165.92 690.115 163.003 688.355C165.395 691.231 169.058 698.215 164.578 703.145C160.098 708.075 155.595 703.556 153.904 700.68C155.012 705.669 155.129 715.012 146.729 712.477C141.156 710.794 139.383 708.14 139.162 705.945C138.231 709 136.112 712.477 132.03 712.477C126.57 712.477 125.205 706.256 125.205 703.145C124.097 706.079 120.446 711.315 114.706 708.779C108.966 706.244 110.681 700.445 112.256 697.863C109.806 699.741 104.136 702.934 101.057 700.68C98.3567 698.704 97.8945 693.438 99.4887 690.468C98.8102 690.562 98.0923 690.577 97.3817 690.468C93.2253 689.83 89.4434 685.554 97.3817 678.318C94.6402 676.91 89.6471 672.966 91.607 668.458C94.0569 662.824 96.1567 660.711 104.206 660.711C100.851 659.877 96.8494 659.28 95.1068 655.781C94.1531 653.866 92.7795 650.342 95.1068 647.153C101.204 638.8 106.87 642.249 108.736 646.209C106.854 641.19 104.6 631.879 108.406 628.313C112.466 624.51 121.297 631.541 125.205 635.532Z" fill="#34A727"/>
<path d="M145.329 670.219C147.021 674.621 151.664 682.016 156.704 676.382C161.743 670.747 156.354 665.582 153.029 663.704M125.205 678.318C125.439 682.838 124.47 691.594 118.731 690.468C112.991 689.341 115.056 681.899 116.806 678.318C114.181 681.429 108.301 686.242 105.781 680.607C103.261 674.973 110.214 669.104 114.006 666.874M125.205 635.532C124.039 629.546 124.61 617.221 132.03 617.221C141.304 617.221 142.354 624.088 142.354 635.532C143.871 631.248 148.304 623.137 153.904 624.968C160.903 627.257 157.054 638.35 153.904 642.399C157.404 638.584 165.418 633.243 169.478 642.399C173.538 651.555 166.853 655.957 163.003 657.013C166.328 655.546 173.958 654.231 177.878 660.711C181.797 667.191 173.911 671.51 169.478 672.86C172.686 674.621 178.368 679.692 175.428 685.89C172.488 692.087 165.92 690.115 163.003 688.355C165.395 691.231 169.058 698.215 164.578 703.145C160.098 708.075 155.595 703.556 153.904 700.68C155.012 705.669 155.129 715.012 146.729 712.477C138.33 709.941 138.563 705.199 139.73 703.145C139.438 706.256 137.49 712.477 132.03 712.477C126.57 712.477 125.205 706.256 125.205 703.145C124.097 706.079 120.446 711.315 114.706 708.779C108.966 706.244 110.681 700.445 112.256 697.863C109.806 699.741 104.136 702.934 101.057 700.68C97.2067 697.863 97.9067 688.355 102.631 688.355C104.835 688.355 101.013 691.025 97.3817 690.468C93.2253 689.83 89.4434 685.554 97.3817 678.318C94.6402 676.91 89.6471 672.966 91.607 668.458C94.0569 662.824 96.1567 660.711 104.206 660.711C100.851 659.877 96.8494 659.28 95.1068 655.781C94.1531 653.866 92.7795 650.342 95.1068 647.153C101.686 638.138 107.764 642.869 109.106 647.153C107.181 642.458 104.346 632.117 108.406 628.313C112.466 624.51 121.297 631.541 125.205 635.532Z" stroke="#156E41" stroke-width="4" stroke-linecap="round"/>
<path d="M126.936 641.851C125.96 636.849 126.438 626.552 132.651 626.552C140.417 626.552 141.296 632.289 141.296 641.851C142.566 638.271 146.278 631.495 150.966 633.025C156.827 634.937 153.604 644.204 150.966 647.587C153.897 644.4 160.608 639.938 164.007 647.587C166.968 654.25 163.104 657.899 159.927 659.313C163.075 658.392 168.211 658.22 171.04 662.886C174.322 668.299 167.719 671.908 164.007 673.035C166.693 674.506 171.45 678.743 168.989 683.921C166.527 689.099 161.028 687.451 158.585 685.98C160.588 688.383 163.655 694.218 159.904 698.336C156.153 702.455 152.383 698.68 150.966 696.277C151.894 700.445 151.992 708.251 144.959 706.132C140.292 704.727 138.808 702.51 138.623 700.675C137.843 703.228 136.068 706.132 132.651 706.132C128.079 706.132 126.936 700.935 126.936 698.336C126.008 700.788 122.951 705.162 118.145 703.043C113.339 700.925 114.775 696.081 116.094 693.923C114.042 695.492 109.295 698.16 106.716 696.277C104.456 694.626 104.069 690.227 105.403 687.746C104.835 687.824 104.234 687.836 103.639 687.745C100.159 687.212 96.9923 683.64 103.639 677.595C101.344 676.419 97.1628 673.124 98.8039 669.358C100.855 664.651 102.613 662.886 109.354 662.886C106.544 662.189 103.193 661.69 101.734 658.767C100.936 657.167 99.7856 654.223 101.734 651.559C106.84 644.58 111.584 647.462 113.146 650.77C111.57 646.577 109.683 638.798 112.87 635.82C116.269 632.642 123.664 638.516 126.936 641.851Z" fill="#59CB4C"/>
<path d="M143.787 670.829C145.203 674.506 149.091 680.685 153.311 675.977C157.531 671.27 153.018 666.955 150.234 665.386M126.936 677.595C127.132 681.371 126.321 688.687 121.515 687.745C116.709 686.804 118.438 680.586 119.903 677.595C117.705 680.194 112.782 684.215 110.672 679.508C108.562 674.801 114.384 669.897 117.559 668.034M126.936 641.851C125.96 636.849 126.438 626.552 132.651 626.552C140.417 626.552 141.296 632.289 141.296 641.851C142.566 638.271 146.278 631.495 150.966 633.025C156.827 634.937 153.604 644.204 150.966 647.587C153.897 644.4 160.608 639.938 164.007 647.587C167.406 655.237 161.809 658.914 158.585 659.797C161.369 658.571 167.758 657.472 171.04 662.886C174.322 668.299 167.719 671.908 164.007 673.035C166.693 674.506 171.45 678.743 168.989 683.921C166.527 689.099 161.028 687.451 158.585 685.98C160.588 688.383 163.655 694.218 159.904 698.336C156.153 702.455 152.383 698.68 150.966 696.277C151.894 700.445 151.992 708.251 144.959 706.132C137.926 704.014 138.121 700.052 139.098 698.336C138.854 700.935 137.222 706.132 132.651 706.132C128.079 706.132 126.936 700.935 126.936 698.336C126.008 700.788 122.951 705.162 118.145 703.043C113.339 700.925 114.775 696.081 116.094 693.923C114.042 695.492 109.295 698.16 106.716 696.277C103.493 693.923 104.079 685.98 108.035 685.98C109.88 685.98 106.68 688.211 103.639 687.745C100.159 687.212 96.9923 683.64 103.639 677.595C101.344 676.419 97.1628 673.124 98.8039 669.358C100.855 664.651 102.613 662.886 109.354 662.886C106.544 662.189 103.193 661.69 101.734 658.767C100.936 657.167 99.7856 654.223 101.734 651.559C107.244 644.028 112.333 647.98 113.456 651.559C111.844 647.637 109.471 638.997 112.87 635.82C116.269 632.642 123.664 638.516 126.936 641.851Z" stroke="#156E41" stroke-width="4" stroke-linecap="round"/>
<path d="M161.642 663.472C162.533 663.472 163.266 664.201 163.267 665.113C163.267 666.025 162.533 666.754 161.642 666.754C160.75 666.754 160.017 666.025 160.017 665.113C160.017 664.201 160.75 663.472 161.642 663.472Z" fill="#FF0404" stroke="#760303" stroke-width="2"/>
<path d="M133.955 642.343C134.846 642.343 135.58 643.071 135.58 643.983C135.58 644.896 134.846 645.625 133.955 645.625C133.063 645.625 132.33 644.896 132.33 643.983C132.33 643.071 133.064 642.343 133.955 642.343Z" fill="#FF0404" stroke="#760303" stroke-width="2"/>
<circle cx="121.934" cy="660.884" r="2.95721" fill="#FF0404" stroke="#760303" stroke-width="2"/>
<circle cx="114.832" cy="687.876" r="2.95721" fill="#FF0404" stroke="#760303" stroke-width="2"/>
<path d="M135.605 672.205C136.496 672.205 137.229 672.934 137.23 673.845C137.23 674.758 136.496 675.487 135.605 675.487C134.713 675.487 133.98 674.758 133.98 673.845C133.98 672.933 134.713 672.205 135.605 672.205Z" fill="#FF0404" stroke="#760303" stroke-width="2"/>
<circle cx="146.393" cy="658.503" r="2.95721" fill="#FF0404" stroke="#760303" stroke-width="2"/>
<path d="M143.237 687.289C144.857 687.289 146.181 688.613 146.181 690.259C146.181 691.904 144.857 693.227 143.237 693.227C141.616 693.227 140.292 691.904 140.292 690.259C140.292 688.613 141.616 687.289 143.237 687.289Z" fill="#FF0404" stroke="#760303" stroke-width="2"/>
<circle cx="161.384" cy="679.938" r="2.95721" fill="#FF0404" stroke="#760303" stroke-width="2"/>
</g>
<defs>
<filter id="filter0_n_25_4" x="-4.40976" y="-3.28833" width="1287.71" height="728.82" filterUnits="userSpaceOnUse" color-interpolation-filters="sRGB">
<feFlood flood-opacity="0" result="BackgroundImageFix"/>
<feBlend mode="normal" in="SourceGraphic" in2="BackgroundImageFix" result="shape"/>
<feTurbulence type="fractalNoise" baseFrequency="4 4" stitchTiles="stitch" numOctaves="3" result="noise" seed="243" />
<feColorMatrix in="noise" type="luminanceToAlpha" result="alphaNoise" />
<feComponentTransfer in="alphaNoise" result="coloredNoise1">
<feFuncA type="discrete" tableValues="0 0 0 0 0 0 0 0 0 0 0 0 0 0 0 0 0 0 1 1 1 1 1 1 1 1 1 1 1 1 1 0 0 0 0 0 0 0 0 0 0 0 0 0 0 0 0 0 0 0 0 0 0 0 0 0 0 0 0 0 0 0 0 0 0 0 0 0 0 0 0 0 0 0 0 0 0 0 0 0 0 0 0 0 0 0 0 0 0 0 0 0 0 0 0 0 0 0 0 0 "/>
</feComponentTransfer>
<feComposite operator="in" in2="shape" in="coloredNoise1" result="noise1Clipped" />
<feFlood flood-color="rgba(0, 0, 0, 0.25)" result="color1Flood" />
<feComposite operator="in" in2="noise1Clipped" in="color1Flood" result="color1" />
<feMerge result="effect1_noise_25_4">
<feMergeNode in="shape" />
<feMergeNode in="color1" />
</feMerge>
</filter>
<clipPath id="clip0_25_4">
<rect width="1280" height="720" fill="white"/>
</clipPath>
</defs>
</svg>
