<svg width="256" height="256" viewBox="0 0 256 256" fill="none" xmlns="http://www.w3.org/2000/svg">
<path d="M30.4538 179.542C29.2571 179.101 26.2541 177.91 23.2399 177.315C20.2947 176.733 17.3762 173.764 15.6309 170.636C14.1398 167.964 14.6487 163.812 14.2739 159.571C13.6379 152.376 13.4475 149.089 13.2195 133.9C13.1596 129.91 12.8424 118.122 13.0659 101.107C13.1715 93.073 15.3983 90.2321 17.0488 87.4765C18.6477 84.8071 22.4609 84.721 25.85 84.4958C29.1045 84.2796 33.5877 83.5349 37.2161 82.7881C41.3579 81.9355 47.1439 82.6342 61.1811 82.8594C66.5956 82.9463 78.8174 83.6776 89.6439 84.0477C107.054 84.6428 113.643 84.5694 120.66 84.9394C134.591 85.6741 138.208 85.7554 144.528 85.9806C153.97 86.317 169.069 86.6472 177.109 86.8724C181.176 86.9863 184.124 89.0193 187.439 90.805C188.867 91.5745 190.153 92.5908 191.356 93.6275C193.805 95.7365 191.521 100.603 190.39 103.805C188.772 108.382 190.157 114.871 190.76 118.073C192.771 128.752 190.916 147.127 190.688 150.103C190.411 153.719 189.408 157.828 188.959 161.691C188.506 165.584 187.755 168.529 186.105 170.914C184.352 173.447 179.943 172.997 175.806 173.67C167.84 174.967 164.436 174.638 160.898 175.081C156.744 175.602 153.146 176.269 147.809 176.495C143.777 176.665 139.31 177.901 131.484 178.278C128.908 178.402 119.053 178.65 105.133 178.724C99.4049 178.754 93.1277 179.096 84.2521 179.023C74.8904 178.945 65.5411 178.356 60.8041 178.057C54.8259 177.68 48.2368 177.019 44.1704 176.497C37.3855 176.568 34.9785 177.014 32.9532 177.237C31.822 177.313 30.4809 177.313 29.5506 177.313" stroke="black" stroke-width="6" stroke-linecap="round"/>
<path d="M82.7381 142.527C82.0846 142.353 80.4448 141.885 78.7989 141.652C77.1907 141.423 75.597 140.256 74.644 139.028C73.8298 137.978 74.1076 136.347 73.903 134.681C73.5557 131.854 73.4517 130.563 73.3272 124.595C73.2945 123.028 73.1213 118.397 73.2434 111.713C73.301 108.556 74.517 107.44 75.4182 106.358C76.2913 105.309 78.3735 105.275 80.2242 105.187C82.0013 105.102 84.4493 104.809 86.4306 104.516C88.6923 104.181 91.8518 104.456 99.5168 104.544C102.473 104.578 109.147 104.865 115.059 105.011C124.566 105.245 128.164 105.216 131.996 105.361C139.603 105.65 141.578 105.682 145.029 105.77C150.184 105.902 158.429 106.032 162.82 106.121C165.04 106.165 166.65 106.964 168.46 107.665C169.24 107.968 169.942 108.367 170.599 108.774C171.936 109.603 170.689 111.515 170.072 112.773C169.188 114.571 169.945 117.12 170.274 118.378C171.372 122.573 170.359 129.792 170.234 130.961C170.083 132.382 169.535 133.996 169.29 135.514C169.043 137.043 168.633 138.2 167.732 139.137C166.775 140.132 164.367 139.955 162.108 140.22C157.758 140.729 155.899 140.6 153.967 140.774C151.699 140.979 149.735 141.241 146.82 141.329C144.619 141.396 142.179 141.882 137.906 142.03C136.499 142.079 131.118 142.176 123.517 142.205C120.389 142.217 116.961 142.351 112.115 142.322C107.003 142.292 101.898 142.061 99.3109 141.943C96.0465 141.795 92.4485 141.535 90.228 141.33C86.5231 141.358 85.2088 141.533 84.1029 141.621C83.4852 141.651 82.7528 141.651 82.2449 141.651" stroke="black" stroke-width="6" stroke-linecap="round"/>
<path d="M193.349 112.043C198.125 108.973 208.372 103.074 211.77 100.858C216.306 97.8993 219.216 94.821 223.653 90.8512C226.396 88.3974 229.897 87.1597 233.813 87.0051C235.525 86.9375 236.682 88.472 237.508 89.941C239.242 93.0256 237.3 97.737 236.612 102.087C236.112 105.245 235.937 108.199 235.858 113.861C235.798 118.125 237.436 121.012 238.788 124.401C240.091 127.668 241.191 133.648 241.726 138.245C242.39 143.949 241.805 151.931 241.577 156.504C241.399 160.08 240.451 163.277 240.149 167.183C239.864 170.861 238.799 174.322 238.043 177.861C237.669 179.611 237.589 181.838 237.217 183.972C237.062 184.858 236.099 185.085 235.194 185.235C231.469 185.854 228.723 183.185 226.387 180.831C223.641 178.062 222.701 174.208 220.818 171.404C219.034 168.747 215.487 166.838 210.682 164.412C199.227 159.323 196.667 157.851 195.24 156.749C194.559 156.23 193.963 155.792 192.446 154.9" stroke="black" stroke-width="6" stroke-linecap="round"/>
<path d="M59.5858 81.2192C58.0993 81.073 54.5111 80.7761 50.9925 79.9674C46.5546 78.9473 41.2002 76.5042 37.219 74.211C34.2514 72.5016 32.3532 69.5647 30.8487 66.2389C29.4474 63.141 29.0479 53.3813 28.3765 47.1087C28.0593 44.1447 29.6407 41.2038 31.2866 38.6137C33.1329 35.7082 36.0716 33.8123 38.9907 32.2569C42.2991 30.494 45.9515 29.3809 49.5397 27.019C54.4599 23.7803 57.9242 22.8756 61.1441 22.3572C65.2135 21.7019 68.846 23.6024 71.7022 25.5965C74.7889 27.7516 76.193 30.5419 78.6585 33.2008C83.3914 38.3049 86.9711 40.291 89.2166 42.5089C92.3934 45.6468 92.6655 49.8894 93.191 53.4345C93.8851 58.1179 89.998 65.5144 84.9772 71.0869C82.1852 74.1857 77.7199 74.5633 71.8077 75.1615C68.2756 76.0478 64.4 77.5146 60.2729 77.8979C59.4421 77.6786 58.8493 77.2399 57.7895 75.9016" stroke="black" stroke-width="6" stroke-linecap="round"/>
<path d="M60.1172 69.6518C59.2793 69.5629 57.2569 69.3825 55.2737 68.8909C52.7723 68.2709 49.7544 66.7858 47.5104 65.3919C45.8378 64.3528 44.7679 62.5677 43.9199 60.5462C43.1301 58.6631 42.9049 52.7307 42.5265 48.9179C42.3477 47.1163 43.239 45.3287 44.1667 43.7543C45.2074 41.9882 46.8637 40.8358 48.509 39.8904C50.3738 38.8188 52.4324 38.1422 54.4548 36.7066C57.228 34.738 59.1806 34.1881 60.9955 33.8729C63.2892 33.4746 65.3365 34.6298 66.9464 35.8419C68.6862 37.1519 69.4776 38.848 70.8672 40.4641C73.5349 43.5666 75.5525 44.7739 76.8181 46.122C78.6087 48.0293 78.7621 50.6082 79.0583 52.763C79.4495 55.6098 77.2586 60.1057 74.4287 63.4929C72.855 65.3765 70.3382 65.6061 67.0059 65.9697C65.0151 66.5084 62.8306 67.4 60.5044 67.633C60.0362 67.4996 59.7021 67.233 59.1047 66.4195" stroke="black" stroke-width="6" stroke-linecap="round"/>
<path d="M133.821 84.9181C132.616 84.6268 129.591 83.1613 126.027 81.687C122.028 80.0327 119.729 78.0145 117.002 75.9509C112.844 72.8046 110.632 66.6879 109.338 63.0088C108.283 60.0116 107.748 56.6856 106.986 53.5891C105.058 45.7524 107.429 31.384 108.724 27.9873C109.781 25.2116 111.823 21.3816 113.875 17.9805C115.477 15.3252 119.547 13.5687 124.403 11.2115C128.21 9.36349 131.228 6.50609 133.962 4.29463C136.734 2.0524 140.626 2.37451 144.647 3.10723C148.316 3.77584 152.298 3.99006 156.549 4.5065C160.475 4.98354 163.224 5.89696 167.994 8.90958C171.884 11.367 174.896 14.1337 178.235 18.2476C181.349 22.0841 181.274 25.9016 182.791 28.4817C184.361 31.1524 183.703 34.7298 184.838 38.921C185.939 42.9867 187.041 46.3477 187.494 49.6671C188.024 53.5561 187.651 57.9745 186.214 61.4373C184.922 64.5497 183.866 67.8356 182.347 71.3669C180.516 75.624 178.108 77.8467 175.529 79.4689C172.624 81.2957 168.564 81.2368 163.709 81.4597C160.298 81.6162 156.738 82.7111 151.884 83.9559C146.417 85.2095 142.782 85.801 138.916 86.9001C137.924 87.1252 137.023 87.1252 135.641 85.3595" stroke="black" stroke-width="6" stroke-linecap="round"/>
<path d="M138.384 67.3242C137.651 67.1605 135.809 66.3375 133.64 65.5094C131.206 64.5803 129.807 63.4468 128.147 62.2878C125.616 60.5207 124.269 57.0853 123.481 55.0189C122.84 53.3356 122.514 51.4675 122.05 49.7284C120.876 45.327 122.32 37.257 123.107 35.3493C123.751 33.7904 124.994 31.6393 126.243 29.7291C127.218 28.2377 129.696 27.2512 132.651 25.9273C134.969 24.8894 136.806 23.2845 138.47 22.0425C140.157 20.7831 142.526 20.964 144.974 21.3756C147.207 21.7511 149.631 21.8714 152.219 22.1615C154.609 22.4294 156.282 22.9424 159.185 24.6344C161.553 26.0146 163.387 27.5685 165.419 29.8791C167.314 32.0338 167.268 34.1779 168.192 35.627C169.148 37.127 168.747 39.1362 169.438 41.4902C170.108 43.7737 170.779 45.6613 171.055 47.5257C171.377 49.7098 171.15 52.1914 170.275 54.1363C169.489 55.8843 168.847 57.7298 167.922 59.7132C166.807 62.1042 165.341 63.3526 163.771 64.2636C162.003 65.2896 159.532 65.2565 156.577 65.3817C154.501 65.4697 152.333 66.0846 149.379 66.7837C146.051 67.4878 143.839 67.82 141.485 68.4373C140.882 68.5637 140.334 68.5637 139.492 67.5721" stroke="black" stroke-width="6" stroke-linecap="round"/>
<path d="M33.928 115.522C33.6835 115.466 33.0697 115.185 32.3466 114.902C31.5352 114.585 31.0688 114.198 30.5155 113.802C29.6719 113.199 29.2229 112.025 28.9603 111.32C28.7464 110.745 28.6378 110.107 28.4832 109.513C28.092 108.01 28.5732 105.255 28.8358 104.603C29.0503 104.071 29.4647 103.337 29.881 102.684C30.2059 102.175 31.0319 101.838 32.0171 101.386C32.7895 101.032 33.402 100.484 33.9566 100.06C34.519 99.6296 35.3087 99.6914 36.1246 99.8319C36.8691 99.9601 37.677 100.001 38.5395 100.1C39.3361 100.192 39.8939 100.367 40.8616 100.945C41.6509 101.416 42.2621 101.947 42.9395 102.736C43.5713 103.471 43.5561 104.203 43.8639 104.698C44.1825 105.21 44.0489 105.897 44.2792 106.7C44.5026 107.48 44.7264 108.125 44.8182 108.761C44.9258 109.507 44.85 110.354 44.5584 111.018C44.2963 111.615 44.0821 112.246 43.7739 112.923C43.4022 113.739 42.9137 114.165 42.3904 114.477C41.8011 114.827 40.9774 114.816 39.9922 114.858C39.3002 114.888 38.5778 115.098 37.593 115.337C36.4836 115.578 35.7462 115.691 34.9617 115.902C34.7605 115.945 34.5778 115.945 34.2972 115.606" stroke="black" stroke-width="6" stroke-linecap="round"/>
<path d="M33.928 143.312C33.6835 143.26 33.0697 142.999 32.3466 142.737C31.5352 142.442 31.0688 142.083 30.5155 141.715C29.6719 141.155 29.2229 140.066 28.9603 139.41C28.7464 138.877 28.6378 138.284 28.4832 137.733C28.092 136.337 28.5732 133.779 28.8358 133.174C29.0503 132.679 29.4647 131.997 29.881 131.392C30.2059 130.919 31.0319 130.606 32.0171 130.186C32.7895 129.857 33.402 129.348 33.9566 128.954C34.519 128.555 35.3087 128.612 36.1246 128.743C36.8691 128.862 37.677 128.9 38.5395 128.992C39.3361 129.077 39.8939 129.24 40.8616 129.776C41.6509 130.214 42.2621 130.707 42.9395 131.439C43.5713 132.122 43.5561 132.802 43.8639 133.262C44.1825 133.737 44.0489 134.374 44.2792 135.121C44.5026 135.845 44.7264 136.443 44.8182 137.034C44.9258 137.727 44.85 138.514 44.5584 139.13C44.2963 139.685 44.0821 140.27 43.7739 140.899C43.4022 141.657 42.9137 142.053 42.3904 142.342C41.8011 142.667 40.9774 142.656 39.9922 142.696C39.3002 142.724 38.5778 142.919 37.593 143.141C36.4836 143.364 35.7462 143.469 34.9617 143.665C34.7605 143.705 34.5778 143.705 34.2972 143.391" stroke="black" stroke-width="6" stroke-linecap="round"/>
<path d="M1.2644 254.051C1.50155 252.972 2.33649 250.787 5.27255 244.554C7.93745 238.896 12.7132 228.044 15.4631 222.062C18.6119 215.213 19.5809 213.704 20.0496 212.834C20.6237 211.769 19.9977 222.788 20.3611 228.251C20.5226 230.68 20.9583 239.241 21.333 245.145C21.5046 247.848 21.9435 249.812 22.3369 251.205C23.0516 253.735 23.7166 245.915 24.7038 242.785C24.9495 242.006 25.1145 241.38 27.1366 237.486C29.1588 233.591 33.0377 226.45 36.4883 220.862C39.939 215.274 42.8438 211.456 45.028 208.758C47.2122 206.06 48.5878 204.598 49.1698 204.071C49.7518 203.544 49.4984 203.996 49.2374 204.462" stroke="black" stroke-width="6" stroke-linecap="round"/>
<path d="M43.6987 238.897C43.6334 239.793 43.5096 241.954 43.7243 243.432C43.9966 245.307 46.2064 246.474 47.9382 247.873C49.5291 249.159 51.556 249.85 55.1644 249.85C57.7897 249.85 59.8119 248.202 66.0937 243.281C68.8109 241.152 68.7445 237.896 68.5893 235.194C68.4715 233.142 65.8363 232.026 64.1022 230.537C62.1983 228.903 59.3218 228.318 56.6359 228.073C54.2248 227.852 52.119 229.49 48.3841 231.386C45.2419 232.981 42.953 234.053 42.4479 235.229C42.0878 236.067 42.328 237.642 42.528 238.551C42.7281 239.46 43.0881 239.718 43.4953 239.89C43.9026 240.061 44.3463 240.139 44.8034 240.219" stroke="black" stroke-width="6" stroke-linecap="round"/>
<path d="M113.022 207.377C113.026 207.555 113.063 208.983 112.991 211.322C112.939 212.994 111.38 219.424 109.84 228.909C108.65 236.236 108.5 239.707 107.882 245.028C107.509 248.24 106.657 251.097 105.984 254.537C105.841 255.264 105.79 255.716 105.789 255.723C105.477 257.539 107.858 249.931 109.135 247.23C109.461 246.54 109.98 245.641 114.922 239.973C119.863 234.305 129.224 223.901 134.22 218.403C139.562 212.629 140.264 212.068 140.57 211.699C140.528 211.607 140.089 211.708 139.376 212.088" stroke="black" stroke-width="6" stroke-linecap="round"/>
<path d="M146.543 230.534C146.038 231.619 144.38 236.143 142.221 242.596C140.98 246.307 140.228 248.511 139.739 250.374C139.316 251.149 138.887 251.973 138.555 252.88C138.387 253.337 138.222 253.787 137.777 253.987" stroke="black" stroke-width="6" stroke-linecap="round"/>
<path d="M176.368 234.884C175.994 234.089 174.348 232.334 172.091 231.308C171.163 230.887 170.028 230.999 168.919 231.162C166.885 231.46 165.19 233.637 164.163 235.511C163.167 237.329 163.462 239.532 162.767 241.98C161.833 245.274 163.386 247.187 164.671 248.642C165.924 250.062 168.023 250.76 169.954 251.209C172.406 251.012 173.639 250.351 174.384 249.882C174.781 249.689 175.221 249.588 176.743 249.457" stroke="black" stroke-width="6" stroke-linecap="round"/>
<path d="M184.112 213.347C183.219 216.498 181.766 222.666 181.031 225.256C180.116 228.482 179.444 232.902 179.088 234.806C178.625 237.287 178.656 240.576 178.106 245.123C178.059 248.574 178.031 250.949 177.877 251.851C177.799 252.305 177.722 252.752 177.636 252.944" stroke="black" stroke-width="6" stroke-linecap="round"/>
<path d="M197.88 238.641C200.018 239.123 204.14 239.558 205.932 239.735C207.89 239.929 213.041 239.865 216.977 239.135C218.583 238.838 219.622 237.627 220.22 236.624C220.858 235.554 220.786 234.177 220.625 233.058C220.49 232.123 219.735 231.413 219.226 230.617C218.011 228.719 211.244 229.11 205.566 229.885C204.139 230.08 203.315 231.205 202.358 232.081C200.017 234.223 201.078 238.088 201.449 240.432C201.89 243.222 202.857 248.568 204.389 250.843C205.634 252.692 209.451 252.019 215.3 252.451C216.612 252.553 217.32 252.623 217.95 252.653C218.58 252.682 219.109 252.668 219.655 252.654" stroke="black" stroke-width="6" stroke-linecap="round"/>
<path d="M234.584 239.841C234.781 240.64 235.724 242.771 237.027 244.854C239.094 248.16 241.71 250.267 245.046 251.625C246.747 252.317 248.366 252.083 249.56 251.783C251.813 251.217 252.747 248.914 254.027 244.934C256.466 237.35 255.548 232.73 254.614 230.906C253.289 228.319 245.735 231.707 242.002 232.893C238.098 233.894 235.899 235.299 235.128 236.488C234.782 237.041 234.529 237.493 234.288 238.768" stroke="black" stroke-width="6" stroke-linecap="round"/>
<path d="M6.25162 182.643C8.62396 181.551 15.598 177.995 24.7614 173.61C29.239 171.467 33.2307 169.225 46.3396 159.74C59.4485 150.255 81.5188 133.528 95.4564 123.279C109.394 113.03 114.53 109.766 121.756 103.936C128.983 98.107 138.144 89.8112 149.387 80.7098C160.631 71.6083 173.679 61.9526 180.817 56.7744C188.693 51.0608 190.34 50.088 192.016 48.6497C194.084 46.8747 201.503 41.6108 212.837 33.245C228.196 23.5728 230.299 22.2005 231.629 21.1722C232.264 20.688 232.819 20.28 232.97 19.4476" stroke="#FF1F1F" stroke-width="6" stroke-linecap="round"/>
<path d="M1.62468 5.02371C1.9023 5.02371 3.01698 5.56769 12.6094 12.5797C21.3122 18.9415 37.4707 31.4235 46.6698 38.3428C57.4538 46.4543 60.2224 48.287 62.2499 49.8633C63.2763 50.6614 64.4161 51.3037 76.995 60.9017C89.5739 70.4998 113.588 88.9953 126.583 98.8632C140.696 109.58 142.67 110.52 147.606 114.81C152.025 118.65 160.176 126.036 167.241 131.995C174.305 137.954 179.996 142.306 183.9 145.5C194.271 153.986 200.422 159.005 204.21 161.409C210.611 165.473 214.589 167.387 218.511 169.925C223.886 173.404 228.604 175.489 231.349 177.416C232.676 178.646 234.085 179.89 235.414 180.919C236.049 181.403 236.605 181.811 238.018 183.055" stroke="#FF1F1F" stroke-width="6" stroke-linecap="round"/>
</svg>
